<?xml version="1.0" encoding="UTF-8"?>
<svg id="Layer_1" xmlns="http://www.w3.org/2000/svg" version="1.1" viewBox="0 0 800 800">
  <!-- Generator: Adobe Illustrator 29.5.0, SVG Export Plug-In . SVG Version: 2.1.0 Build 137)  -->
  <defs>
    <style>
      .st0 {
        fill: #a36627;
      }
    </style>
  </defs>
  <path class="st0" d="M178,161.6c-2.1,3.7-3.5,6.5-4,8-1.4,4.4-2,6.6-2.5,7.9-2.6-.6-5.4-1.7-7.7-1-2.2.9-2.6,3.1-5.3,3.8-3.1.6-7.8-1.1-10.9-1.5-6.6-1.1-13.5-2-20.2-3.5-10.7-2.4-14.4-12.4-13.8-22.4.7-9.3,10.2-12.4,17.7-13.5,7.5-1.3,17.7-4.7,24.8-.4,10.3,6.3,6.2,25.6,21.7,22.7Z"/>
  <path class="st0" d="M680.8,235.7c-.6-9.3-22.3-29.4-28.5-35.5-4.1-4-18.6-16.4-23.4-19.5-2.9-1.8-3.5-1.8-4.2-3.6-.4-1.3-1-3.6-2.4-7.9-.6-1.6-1.9-4.3-4-8-12.5-22.6-48.8-78.8-51.8-81.9-3.7-3.6-11.6-10.7-22.9-12.7-11.2-1.9-124.2-7.8-145.4-7.8s-134.3,6.1-145.5,8.1c-11.3,2-19.2,9-22.8,12.6-3,3.1-39.4,59.4-51.7,82-2.1,3.8-3.5,6.6-4,8-1.4,4.5-2,6.7-2.4,7.9-.6,1.2-3.5,3.2-4.6,3.8-.2.2-.3.3-.3.3-3.1,2.1-15.8,10.7-22.6,17.9-10.3,10.9-28,27.3-28.5,36.6-.4,9.3-4.4,15.9-3.4,34.6.3,9,2.9,36.4,5.3,62.4,2.4,27.4,5.1,53.3,5.3,55.3.4,4-.9,8.5.9,11.9,1.8,3.6,6.2,4.6,13.2,4.5,2.2,0,25.7.3,58.1.8,77,.9,203.3,2.6,203.3,2.6,0,0,130.3-1.9,206.9-3,30.4-.4,52.4-.8,54.4-.8,7,0,11.5-.9,13.4-4.5,1.7-3.4.3-7.9.8-11.9.3-2.8,4.9-49.6,7.9-84.1,1.3-15.2,2.3-28,2.7-33.7.9-18.6-3.1-25.3-3.5-34.5ZM637.3,228.8c10,0,12-1.3,14,7.9,1.3,6,1.3,14,0,19.4-4,19.2-28.5,19.2-44.5,19.2-29.3.1-54.6,7.3-77.6-33.8,19.8-5.9,43.2-5.3,63.1-8.6,15.1-2.8,29.8-4.1,45-4.1ZM235.6,82.4l162.6-5.7,162.3,5.3s58.6,91.2,54.2,91.2-150.8-8.2-216.6-6.8c-65.8-1.3-212.4,7.1-216.5,7.1-4.4,0,54-91.2,54-91.2ZM145.1,237.1c2-9.2,4-7.9,13.9-8,15.2,0,29.9,1.4,45.2,4.1,20,3.2,43.3,2.6,63.1,8.5-23,41.3-48.4,34-77.7,34s-40.5,0-44.5-19.2c-1.3-5.3-1.3-13.4,0-19.4ZM249.6,385.9c-9.8,3.6-32.3,2.8-42.9,2.8s-7.8,0-11.6-.1c-9.3-.1-18.7-.3-28.1-.4-4.2-.1-8.3-.1-12.7-.1-15.9,0-18.6-5.3-15-21.2,3.5-11.6,1.3-22.5,13.2-26.9,4.3-1.6,18.8-2.2,36.7-2.1,1.9,0,3.9,0,5.9.1,5.9.1,12.1.2,18.5.6,3.8.1,7.6.3,11.3.6,1.5,0,2.8.1,4.1.2,2.1.1,4.1.3,6.1.4,2,.1,4,.3,6,.4,2,.2,3.9.4,5.8.6,2.9.2,5.7.6,8.3.9,1.8.2,3.6.4,5.1.7,1.4.2,2.8.4,4.1.6.7.1,1.3.2,1.9.3.9.1,1.7.3,2.4.4.3.1.7.1.9.1.6.1,1.1.2,1.7.3.9.2,1.7.3,2.5.6-4.4,15-8.3,36-24.2,41.4ZM505,365.5c-5.7,15.9-27.8,13.8-30,13.8h-153.3c-2.1.1-24.4,2.3-30-13.6-5.9-16-14.7-41.7-17.8-54.5-3.3-13.5-14.2-36.6,51-35.2,33.6.7,57.8.7,73.4.4,15.7.2,39.9.2,73.5-.6,65.1-1.6,54.3,21.6,51,35-3.1,12.8-11.9,38.6-17.7,54.5ZM642.4,387.5c-12.7,0-24.8.4-37.2.7-5.1.1-10.1.1-15.2.1-10.7,0-33.2.9-42.8-2.7-15.9-5.3-20-26.4-24.4-41.4,1.1-.3,2.2-.6,3.4-.8,1.6-.2,3.3-.6,5.1-.9,1.1-.1,2.3-.3,3.5-.6.4,0,.8,0,1.2-.1,1.6-.2,3.3-.4,5-.7h.5c1.7-.2,3.4-.4,5.2-.7,4.3-.4,8.9-.9,13.7-1.2,1.3,0,2.7-.1,4-.2,7.2-.6,14.7-1,22-1.2,1.9-.1,3.8-.2,5.7-.3h4.1c1.7-.1,3.2-.1,4.9-.2h3.9c19-.3,34.5.4,38.9,2,11.9,4.5,9.8,15.4,13.4,26.9,3.6,15.9.9,21.2-15,21.2Z"/>
  <path class="st0" d="M195.1,416.7v30.6c0,2.9-2.3,5.3-5.2,5.3h-66.9c-3,.1-5.3-2.3-5.3-5.2v-37c5.8,5.3,14.2,5.6,18.9,5.6s58.4.8,58.4.8h.1Z"/>
  <path class="st0" d="M682.8,405.1v41.7c0,3-2.3,5.3-5.3,5.3h-66.9c-2.9.1-5.3-2.3-5.3-5.2v-30.7c31.6-.4,54-.8,54.4-.8,5.2,0,17.4,0,23.1-10.3Z"/>
  <path class="st0" d="M189.1,363.2c0,11.2-9.1,20.3-20.2,20.3-11.2,0-20.3-9.1-20.3-20.3,0-11.2,9.1-20.3,20.3-20.3,11.1,0,20.2,9,20.2,20.2Z"/>
  <path class="st0" d="M668.8,174.7c-6.6,1.5-13.6,2.5-20.2,3.6-3.1.4-7.7,2.2-10.8,1.6-2.7-.7-3.1-2.9-5.3-3.8-2.3-.7-5.1.4-7.7,1-.5-1.2-1.1-3.5-2.5-7.9-.5-1.5-1.9-4.3-4-8,15.5,2.8,11.3-16.4,21.7-22.8,7-4.3,17.3-.9,24.8.4,7.5,1.1,17,4.2,17.7,13.5.7,10-3,19.9-13.7,22.4Z"/>
  <path class="st0" d="M223.9,363.2c0,8-6.4,14.5-14.4,14.5s-14.5-6.5-14.4-14.4c0-8,6.4-14.5,14.4-14.5,8,0,14.5,6.4,14.4,14.4Z"/>
  <path class="st0" d="M646.8,362.8c0,11.2-9,20.3-20.2,20.3-11.1,0-20.2-9.1-20.3-20.3,0-11.2,9.1-20.2,20.2-20.3,11.2,0,20.3,9.1,20.3,20.2Z"/>
  <path class="st0" d="M598.3,362.8c0,8-6.5,14.5-14.4,14.5-8,0-14.5-6.5-14.5-14.4,0-8,6.5-14.5,14.4-14.5,8,0,14.5,6.4,14.5,14.4Z"/>
  <rect class="st0" y="687.9" width="146.5" height="52.8"/>
  <polygon class="st0" points="49.6 676.8 49.6 229 96.9 229 96.9 463.4 212.9 463.4 212.9 481.9 96.9 481.9 96.9 676.8 49.6 676.8"/>
  <rect class="st0" x="653.5" y="688.3" width="146.5" height="52.8"/>
  <polygon class="st0" points="703.1 677.1 703.1 482.2 587.1 482.2 587.1 463.8 703.1 463.8 703.1 229.3 750.4 229.3 750.4 677.1 703.1 677.1"/>
</svg>