<?xml version="1.0" encoding="UTF-8"?>
<svg id="Layer_1" xmlns="http://www.w3.org/2000/svg" version="1.1" viewBox="0 0 800 800">
  <!-- Generator: Adobe Illustrator 29.5.0, SVG Export Plug-In . SVG Version: 2.1.0 Build 137)  -->
  <defs>
    <style>
      .st0 {
        fill: #a36627;
      }
    </style>
  </defs>
  <path class="st0" d="M649.9,459c-1.6,1.8-1,3.3,1.4,4.6.3.3,1,.5,1.6.8,14.6-12.2,30.1-26.4,50.5-38,4-2.3,7.8-4.5,11.6-6.2,0-.1.1-.1.1-.1,5.2-2.4,10.3-4.2,16.5-4.7,4.7-.3,13.6,1.4,13.6,8.8s-1,19.7-2,28c-2.2,20.5-20.1,1.3-24,4-5.2,3.8,11.5,9.8,14.4,14h.1c19.6,0,42-.3,66.2-.9v238.7h-193.8v-.2h0c2.1-9.2,3.2-18.7,3.2-28.5,0-70.8-57.5-128.4-128.3-128.4s-128.4,57.6-128.4,128.4,1,19.3,3.3,28.4h0c0,.1-.1.1-.1.1,0,0,.1,0,.1.2h-62.9c-11.8,0-15.2,0-22.6-.6-3.3,0-7.4-.3-13.3-.7-3-.1-6.3-.3-10.4-.5-1.8-.2-4.2-.2-6.5-.3-5.2-.3-9.6-1-13.1-2.3-.7-.2-1.2-.3-1.7-.6-.7-.3-1.4-.5-2.1-1-1.4-.5-2.7-1.2-3.7-2.1-2-1.4-3.1-2.8-4.2-4.6-.7-1.2-1.3-2.5-1.6-3.8-1-4-.7-8.2.3-11.6,0-.6.2-.9.3-1.5,0-.3.2-.7.3-1,.2-.8.6-1.7.9-2.4.5-1,.8-2,1.2-2.7.5-.3.6-.7.6-.7h0c0-.1.1-.4.6-.8v-.2c.1-.5.7-1.4,1.2-2.3.3-1,1-2.2,1.6-3.5.5-1.3,1-2.7,1.4-3.8.6-2,.9-3.7.9-5.3,0-9.9,0-19,.1-27.1,0-2.8.2-5.4.2-8.1v-2.5c0-1.8,0-3.2.1-4.8v-.7c0-2.1.2-4.2.2-6.1.1-2.2.1-4.4.3-6.5,0-1.8.1-4,.3-5.8,0-1.8.1-3.8.3-5.5.1-1.6.3-3.3.3-5,.3-2.8.5-5.1.8-7.6,19.1.6,38.7,1.7,56.7-2,24.2-5.8,31.1-25.5,36.9-47.4-23.2-1.7-47.2-1.5-70.8-1.3,2.1-2.8,4.2-5.8,6.6-9.3,1.6-2.2-.5-.8,2.1-2.1l1-.7,59-3.3h2.7c0-.1,3.6-.3,3.6-.3h.2l259.7-14.7,16.6-1-16.7.9-199.8-182.7-5.5-5.2-58.2-53.1c46.2-1.6,221.6,165.2,280.5,203.3h-.2v.8l.2-.8c4.4-1,7.9-2.2,10.5-3.2,16.6-6.9,117.7-60.4,188.7-92.8v16c-59.5,26-133.3,62.2-150.1,82.2Z"/>
  <path class="st0" d="M600.8,456.8l-.2.8v-.8h.2Z"/>
  <path class="st0" d="M241.8,566.5c-4.5,0-9,0-13.5-.2,3.3-12.4,8.3-19.8,16.6-31.3,7,0,13.9-.1,20.9-.1,13.5,0,24.8.2,35,.6-5.7,16.2-12.8,25-27.2,28.4-8.5,1.8-18.7,2.6-31.8,2.6Z"/>
  <path class="st0" d="M481.4,574.9c-57.4,0-104.1,46.7-104.1,104.1s46.7,104.1,104.1,104.1,104.1-46.7,104.1-104.1c0-57.4-46.8-104.1-104.1-104.1ZM543.9,742.4l-7.1,6.5-.7.3c-1.2,1-3.2,2.4-5.2,3.8l-8.1,4.7c-13,6.9-26.9,10.4-41.5,10.4s-28.4-3.5-41.1-10.1c-2.8-1.3-5.5-3-8.2-4.7-2.1-1.4-4.1-2.9-6.2-4.5l-6.7-6.1c-9.8-9.6-16.9-20.6-21.4-33.2-3.6-9.9-5.4-20.1-5.4-30.3s.5-10,1.4-15.1c.3-2.9,1-6.1,2.2-9.4.5-2.1,1.3-4.6,2.1-6.9,1.2-3,2.5-6,4-8.8,13-25.7,37.8-43.7,66.3-47.8,3.1-.6,6.2-.8,9.3-.9,1.2-.1,2.3-.1,3.7-.1s2.9,0,4.4.1c2.8.1,5.9.3,9,.9,28.6,4.3,53.3,22.3,66.2,48.1,1.3,2.3,2.7,5.1,3.9,8.6.8,2.3,1.7,4.8,2.4,7.4.8,2.8,1.5,5.9,2,9,.8,4.7,1.3,9.7,1.3,15,0,10.5-1.7,20.6-5.3,30.3-4.6,12.5-11.9,23.9-21.2,33Z"/>
  <path class="st0" d="M563.5,665c-.5-2.9-1.2-5.8-2-8.5-.6-2.3-1.4-4.6-2.2-6.8-1-2.8-2.2-5.4-3.7-8.1-11.8-23.6-34.8-40.9-61.9-45-2.9-.5-5.8-.7-8.6-.8-1.3-.1-2.4-.1-3.8-.1s-2.2,0-3.5.1c-2.9.1-5.8.3-8.8.8-27.2,4-50,21.2-62,45-1.4,2.5-2.6,5.3-3.7,8.1-.8,2.1-1.5,4.4-2.1,6.7-.9,2.8-1.6,5.6-2,8.6-.8,4.5-1.3,9.2-1.3,14.1,0,9.9,1.8,19.5,5.1,28.4,4.3,11.8,11.1,22.3,19.8,30.9l6.6,5.9c1.8,1.5,3.7,2.9,5.8,4.2,2.4,1.6,5,3.2,7.6,4.5,11.5,6.1,24.6,9.5,38.4,9.5s27.1-3.5,38.6-9.6l7.7-4.5c1.8-1.3,3.8-2.7,5.6-4.2h.2c0-.1,6-5.5,6-5.5l.3-.3c8.8-8.5,15.6-19.1,19.8-30.8,3.2-8.9,5-18.5,5-28.4,0-4.8-.4-9.5-1.2-14.1ZM552.9,652.2c.7,2,1.5,4,2,6,0,.2.1.2.1.3l-47.8,15.6-8.8,2.9c0-.2-.1-.3-.1-.4-.2-2.2-1-4.3-2-6-.2-.1-.2-.2-.2-.3l8.9-2.8,47.8-15.6c0,.1,0,.2.1.3ZM493.8,603.7c23.6,3.8,44.2,18.8,55.3,40.1l-35.3,11.5-14.3,4.6-5.8,1.8s0-58.1,0-58.1ZM477.9,602.7h.2c1.3-.1,2.1-.1,2.9-.1h3.3c.2,0,.6,0,.8.1v59.7h-.2c-1-.2-2.2-.3-3.2-.3s-2.4.1-3.6.3h-.2v-59.7h0ZM481.3,671.4c4.3,0,7.6,3.3,7.6,7.5s-3.3,7.6-7.6,7.6-7.5-3.5-7.5-7.6c0-4.2,3.3-7.5,7.5-7.5ZM469.1,603.7v58.1l-5.6-1.8-14.2-4.6-35.6-11.6c11.3-21.3,31.8-36.3,55.4-40ZM407.8,658.4c.7-2,1.3-4.2,2.1-6.1.1-.1.1-.3.2-.6l47.8,15.7,9.2,2.9c0,.1-.1.1-.1.1-1.2,2-1.8,4.1-2.2,6.5v.2l-9-3-48.1-15.6h0ZM427.1,732.7c-7.3-7.4-12.9-15.9-16.6-25.2-3.6-8.9-5.5-18.6-5.5-28.4s.2-8.1,1-12l35.6,11.6,14.2,4.6,5.6,1.8-3.6,5-8.6,12-3.9,5.3-18.2,25.2ZM439.3,742.8h-.1c-2.1-1.5-3.7-2.8-5.5-4q0-.1-.1-.2l22.6-31.1,7.3-9.9,5.4-7.5c.1.1.2.2.2.3,1.4,1.5,3,2.9,5,3.7.1.1.3.2.5.2l-5.4,7.5-4.1,5.6-25.6,35.4ZM481.3,755.4c-12.1,0-23.8-2.8-34.4-8.2l22.1-30.6,6.7-9.2,2.1-2.9,3.7-4.8,3.6,5,2,2.8,6.7,9.2,22,30.4c-10.5,5.5-22.1,8.3-34.5,8.3ZM528.8,738.8c-1.4,1.2-3.1,2.4-5.1,3.6v.2c-.1,0-25.8-35.2-25.8-35.2l-4.1-5.8-5.2-7.3c.1-.1.2-.2.5-.3,1.7-.8,3.5-2,4.8-3.5,0-.1.2-.3.3-.5l5.3,7.4,7.1,9.9,22.5,31.1-.3.2ZM552.3,707.4c-3.7,9.2-9.2,17.8-16.6,25.1l-18.1-25.1-3.8-5.3-8.9-12-3.5-5,5.6-1.8,14.3-4.6,35.4-11.5c.6,4,1,7.8,1,11.9,0,9.8-2,19.4-5.5,28.4Z"/>
  <path class="st0" d="M335.3,403c.7-.1,1.4-.2,2.2-.3l-16.5,54.2c-4.7-4.3-7.8-9.8-9.5-15.8-2.5,1.3-5.1,2.3-7.9,3.2-21.1,6.7-38.3-1-48.8-14.3-10.1,1.4-20.3.7-30.3-1.8h-.1c-3.8-1-7.4-2.3-11.1-3.7-5.2-1.7-10.4-3.6-15.4-5.9-18.5-8.8-32.5-26.9-38.6-46-3.7-11.8-4.4-24.2-2.4-36.2-34.6-5.3-57.1-37.8-59-70.8-22.1-8.9-41.1-25-53.4-46.2-52.5-19.7-66.3-109.6,2.2-131.2,8.2-2.5,16-3.7,23.3-3.6,10.1-8.4,22-15.1,35.3-19.3,55.3-17.5,116.2,14.2,133.6,69.5,2.5,8.1,4,16.3,4.6,24.3,22.7,20.9,24.6,64.9-10.8,79.4,4,10.3,6.1,21.3,5.6,32.3,5,.3,9.8,1.2,14.6,2.4h0c3.6-7.4,10-13.4,20.1-16.6,34.8-11,55,31.6,37.5,54.5,3.5,5.6,6.3,11.5,8.3,17.6,3.7,12,4.5,24.7,2.4,36.9,9.2,9.8,14.4,23.7,14.2,37.3Z"/>
  <path class="st0" d="M367.1,493.3c-10,3.2-18.5.2-24.1-5.6l22.8-75.6c9.5,9.2,12.6,23.7,6.8,36.1,15,10.2,17.3,38-5.5,45.2Z"/>
  <path class="st0" d="M278.8,129.2c-21.3,6.7-10.9,39.7,10.4,33,21.3-6.7,10.9-39.8-10.4-33Z"/>
  <path class="st0" d="M34.4,18.1c-29.8,9.4-15.3,55.6,14.6,46.2,29.8-9.4,15.2-55.7-14.6-46.2Z"/>
  <path class="st0" d="M600.8,456.8l-.2.8v-.8h.2Z"/>
  <polygon class="st0" points="380.3 324.1 327.9 497.6 320.5 498 374.8 319 376.3 320.4 380.3 324.1"/>
</svg>