<?xml version="1.0" encoding="UTF-8"?>
<svg id="Capa_1" xmlns="http://www.w3.org/2000/svg" version="1.1" viewBox="0 0 800 422.5">
  <!-- Generator: Adobe Illustrator 29.5.0, SVG Export Plug-In . SVG Version: 2.1.0 Build 137)  -->
  <defs>
    <style>
      .st0 {
        fill: #bf8e50;
      }
    </style>
  </defs>
  <g>
    <path class="st0" d="M492.9,29.9c-29.9-4.3-61.4-6.3-92.8-6.3h-.1c-31.4,0-62.9,2-92.8,6.3-23.6,3.4-46.9,8.4-69.9,14.6,0,.6,1.7.2,2.3.1,6.8-1,14.2-3.2,21.2-4.5,45.6-8.6,92.4-12.7,139.3-12.6h.1c46.9-.1,93.7,4,139.3,12.6,6.9,1.3,14.4,3.5,21.2,4.5.5,0,2.3.4,2.3-.1-22.9-6.2-46.3-11.2-69.9-14.6Z"/>
    <path class="st0" d="M572.3,59.6c-23.6-7-47.5-13.2-71.8-17.4-32.3-5.6-66.4-8.1-100.5-8-34.2-.1-68.2,2.4-100.5,8-24.3,4.2-48.2,10.4-71.8,17.4-1.4,1,1.4,30,1.8,34,1.6,15.8,3.9,31.7,6.7,47.3l15.7,6.4c-3.7-24.6-7.6-49.3-7.4-74.2,28.4-10.2,58.5-15.9,88.5-19.3,21.8-2.4,44.3-3.7,66.9-3.9,22.6.1,45.2,1.4,66.9,3.9,30,3.3,60.1,9.1,88.5,19.3.2,24.9-3.7,49.7-7.4,74.2l15.7-6.4c2.8-15.7,5.1-31.5,6.7-47.3.4-4,3.2-33,1.8-34h0Z"/>
    <path class="st0" d="M504.9,261.2c-6,8.9-12.5,17.4-19.7,25.5-18.1,20.4-38.9,37.8-63.4,50.2-3.2,1.6-16.4,8-21.8,9.5-5.4-1.5-18.6-7.9-21.8-9.5-24.5-12.4-45.3-29.8-63.4-50.2-7.1-8.1-13.7-16.6-19.7-25.5h-15.3c5.4,8.9,11.3,17.5,17.8,25.6,26.6,33.6,61.6,60.2,102.4,75.2,40.8-15,75.8-41.6,102.4-75.2,6.4-8.1,12.3-16.7,17.8-25.6h-15.3Z"/>
    <path class="st0" d="M487.6,314.8c-25.4,23.9-55.2,42.7-87.6,55.6-32.4-12.9-62.2-31.8-87.6-55.6-9.2-8.7-17.5-18.4-26.2-27.5l7.5,10.4c28.2,34,65.1,61,106.3,77.2,41.2-16.2,78-43.2,106.3-77.2l7.5-10.4c-8.7,9.1-16.9,18.9-26.2,27.5h0Z"/>
    <path class="st0" d="M411.6,106.4c-.2-3.2-6-8.6-9.4-11.4-.8-.6-.3-1.8.7-1.8h46c1.2,0,1.5-1.8.3-2.1l-36.9-9.9c-.4-.1-.7-.4-.8-.9L400.8,1.7c-.2-1.2-1.9-1.2-2.1,0l-10.7,78.6c0,.3,0,.6.3.9l9.6,10.3c.6.7.1,1.8-.8,1.8h-46.1c-1.2,0-1.5,1.7-.3,2.1l36.5,10c.4.1.7.4.8.9l10.8,73.8c.2,1.2,1.9,1.2,2.1,0l10.8-73.2c0,0,0-.2,0-.3h0Z"/>
  </g>
  <g>
    <g>
      <path class="st0" d="M172.4,398.3c-1.1,0-2.2.5-2.7,1.3-.1.2-14.7,21.2-14.9,21.4l-.4.6h3.4c.3,0,.6-.1.8-.4.1-.1,9.4-13.3,12.9-18.2l1.2-1.7,12.4,19.5c.3.5.8.7,1.4.7h3l-14.9-23.4h-2.1,0Z"/>
      <path class="st0" d="M239,399.1v11.3c0,3.3-2.3,6.4-6.1,7.9-.8.3-1.2.9-1.2,1.7v1.8h.5c6.2-1.7,10.3-6.2,10.2-11.5v-11.9h-2.5c-.5,0-.9.3-.9.8h0Z"/>
      <path class="st0" d="M222.9,418.2c-3.8-1.5-6.1-4.5-6.1-7.9v-11.3c0-.4-.4-.8-.9-.8h-2.5v11.7h0v.3c0,5.2,4.1,9.6,10.2,11.2h.5c0,.1,0-1.6,0-1.6,0-.7-.5-1.4-1.2-1.7h0Z"/>
      <path class="st0" d="M279.6,405.2h-1.8v15c0,.8.8,1.5,1.8,1.5h1.8v-15c0-.8-.8-1.5-1.8-1.5h0Z"/>
      <path class="st0" d="M290.9,398.3h-24.4v1.4c0,.8.8,1.5,1.8,1.5h24.4v-1.4c0-.4-.1-.7-.4-1-.3-.3-.8-.5-1.4-.5h0Z"/>
      <path class="st0" d="M330.5,398.3c-8,0-14.5,5.2-14.5,11.7s6.5,11.7,14.5,11.7,14.5-5.2,14.5-11.7-6.5-11.7-14.5-11.7ZM341.6,410c0,4.9-5,8.8-11.1,8.8s-11.1-4-11.1-8.8,5-8.8,11.1-8.8,11.1,4,11.1,8.8Z"/>
      <path class="st0" d="M403.9,399l-14.4,20.1-14.4-20.1c-.3-.4-1-.7-1.7-.7h-1.9v23.3h1.3c1.2,0,2.2-.7,2.2-1.5v-15.8l12,16.5c.4.6,1.3,1,2.3,1h.4c1,0,1.8-.4,2.3-1l12-16.5v15.8c0,.8,1,1.5,2.2,1.5h1.2v-23.3s-1.9,0-1.9,0c-.7,0-1.4.3-1.7.7h0Z"/>
      <path class="st0" d="M448.5,398.3c-8,0-14.5,5.2-14.5,11.7s6.5,11.7,14.5,11.7,14.5-5.2,14.5-11.7-6.5-11.7-14.5-11.7ZM459.6,410c0,4.9-5,8.8-11.1,8.8s-11.1-4-11.1-8.8,5-8.8,11.1-8.8,11.1,4,11.1,8.8Z"/>
      <path class="st0" d="M510.7,398.3h-24.4v1.4c0,.8.8,1.5,1.8,1.5h24.4v-1.4c0-.4-.2-.7-.4-1-.3-.3-.8-.5-1.4-.5h0Z"/>
      <path class="st0" d="M499.4,405.2h-1.8v15c0,.8.8,1.5,1.8,1.5h1.8v-15c0-.8-.8-1.5-1.8-1.5h0Z"/>
      <path class="st0" d="M560.3,418.4c-1.2-1.2-2.9-2.9-7.1-7.1h0c2.5,0,4.9-.8,6.5-2.3,1.2-1.2,1.9-2.6,1.9-4.2,0-1.5-.7-3-1.9-4.2-1.6-1.5-4-2.4-6.5-2.3h-19.4v.8c0,1.1,1.1,2,2.5,2,11.9,0,15.5,0,16.6,0h.5c2.7,0,4.7,1.6,4.8,3.6,0,2-2.1,3.6-4.8,3.6h-7.8l.7.7c8.7,8.5,11.3,11.1,12,11.8h0l.6.6h0s0,0,0,0c.3.1.7.2,1.2.2h3.4l-.7-.7c-1.1-1.1-1.8-1.8-2.6-2.6h0Z"/>
      <path class="st0" d="M592.9,398.3h-1.8v21.9c0,.8.8,1.5,1.8,1.5h1.8v-21.9c0-.8-.8-1.5-1.8-1.5h0Z"/>
      <path class="st0" d="M647.3,398.3h-24v1.1c0,.8.8,1.5,1.8,1.5h23.9v-1.4c0-.8-.7-1.2-1.8-1.2Z"/>
      <path class="st0" d="M647.3,418.9h-19.7c4.1-3.4,11.6-9.5,15.4-12.5l1-.7h-2.4c-1.2,0-2.3.4-3.1,1,0,0-.7.6-13.7,10.9-.9.7-1.4,1.7-1.4,2.8v1.3h25.7v-1.4c0-.9-.9-1.4-1.8-1.4Z"/>
    </g>
    <g>
      <path class="st0" d="M40.5,187.3H0v1.3c0,2.1,2.1,3.9,4.7,3.9,25,0,32.7,0,35.1,0s.8,0,1,0h0c5.9,0,10.6,3.6,10.6,8.3s-4.7,8.2-10.4,8.3h-.3c-.7,0-8.5,0-23.5,0H0v26.8h3.3c1.8,0,3.3-1.2,3.3-2.7v-19h34.5c9.2,0,16.7-6,16.7-13.4s-1.3-6.1-3.8-8.5c-3.3-3.2-8.2-5-13.4-4.9h0Z"/>
      <path class="st0" d="M121.3,187.3h-3.3v45.8c0,1.5,1.5,2.7,3.3,2.7h3.3v-45.8c0-1.5-1.5-2.7-3.3-2.7Z"/>
      <path class="st0" d="M217.1,187.3c-16.7,0-30.2,10.9-30.2,24.3s13.6,24.3,30.2,24.3,30.2-10.9,30.2-24.3-13.6-24.3-30.2-24.3ZM241.1,211.5c0,10.6-10.8,19.1-24,19.1s-24-8.6-24-19.1,10.8-19.1,24-19.1,24,8.6,24,19.1Z"/>
      <path class="st0" d="M349,190v40l-39.1-42.1c-.3-.4-.9-.6-1.4-.6h-7.4v26.8h3.3c1.8,0,3.3-1.2,3.3-2.7v-18.2l39,42.1c.3.4.9.6,1.4.6h7.4v-48.5h-3.3c-1.8,0-3.3,1.2-3.3,2.7h0Z"/>
      <path class="st0" d="M577.1,229.6c-2.7-2.7-6.3-6.4-15.9-15.8h1.3c5.1.1,10-1.6,13.3-4.8,2.5-2.4,3.8-5.4,3.9-8.5,0-3.1-1.4-6.1-3.9-8.5-3.3-3.2-8.2-4.9-13.3-4.8h-40.5v1.3c0,2.1,2.1,3.9,4.7,3.9,24.8,0,32.6,0,35.1,0s.9,0,1.1,0h0c5.8,0,10.5,3.6,10.6,8.1,0,4.6-4.7,8.1-10.6,8.1h-1.1c-1.5,0-5,0-13.1,0h-1l.7.7c20,19.7,24.7,24.2,25.7,25.2h0l.6.6h0c.1,0,.2.1.4.2.7.3,1.5.4,2.3.4h6l-.7-.7c-2.4-2.3-3.8-3.7-5.5-5.5h0,0Z"/>
      <path class="st0" d="M664.6,187.3c-16.7,0-30.2,10.9-30.2,24.3s13.6,24.3,30.2,24.3,30.2-10.9,30.2-24.3-13.6-24.3-30.2-24.3ZM688.6,211.5c0,10.6-10.8,19.1-24,19.1s-24-8.6-24-19.1,10.8-19.1,24-19.1,24,8.6,24,19.1Z"/>
      <path class="st0" d="M783.4,209h-3.4s0,2.5,0,2.5c0,1.5,1.4,2.7,3.2,2.7,6.9.1,10.6,4.3,10.6,8.3s-4.4,8.1-9.8,8.2h-36.9c-1.8,0-3.3,1.2-3.3,2.7v2.4h1.7c12.3,0,26.3,0,33.8,0h5.3c8.8-.6,15.5-6.4,15.5-13.4s-7.5-13.4-16.6-13.4h0Z"/>
      <path class="st0" d="M759.6,214.1h3.4v-2.4c0-1.5-1.5-2.7-3.4-2.7-5.8,0-10.4-3.7-10.4-8.3s4.7-8.2,10.4-8.3h.3c.8,0,7,0,18.5,0h15.9c1.8,0,3.3-1.2,3.3-2.7v-2.4h-37.5c-5.2-.1-10.1,1.6-13.4,4.9-2.5,2.4-3.8,5.4-3.8,8.5,0,7.4,7.5,13.4,16.7,13.4h0Z"/>
      <path class="st0" d="M471.2,189.7v-2.4h-56.3v5.1h53c1.8,0,3.3-1.2,3.3-2.7h0Z"/>
      <path class="st0" d="M468.9,230.6h-47.4v-16.6h41.1c1.8,0,3.3-1.2,3.3-2.7v-2.4h-50.9v24.1c0,1.5,1.5,2.7,3.3,2.7h53.9v-2.4c0-1.5-1.5-2.7-3.3-2.7h0Z"/>
    </g>
  </g>
</svg>