<?xml version="1.0" encoding="UTF-8"?>
<svg id="Capa_1" xmlns="http://www.w3.org/2000/svg" version="1.1" viewBox="0 0 800 138.3">
  <!-- Generator: Adobe Illustrator 29.5.0, SVG Export Plug-In . SVG Version: 2.1.0 Build 137)  -->
  <defs>
    <style>
      .st0 {
        fill: #A36627;
      }
    </style>
  </defs>
  <g>
    <path class="st0" d="M308.9,97.6c-.9,0-1.7.4-2.1,1.1,0,0-11.4,16.4-11.5,16.5l-.4.5h2.6c.2,0,.5,0,.6-.3,0,0,7.3-10.3,10-14.2l.9-1.3,9.6,15.2c.2.4.7.6,1.1.6h2.4l-11.6-18.1h-1.7.1Z"/>
    <path class="st0" d="M360.7,98.2v8.7c0,2.6-1.8,5-4.8,6.1-.6.2-1,.7-1,1.3v1.4h.4c4.8-1.3,7.9-4.9,7.9-8.9v-9.2h-2c-.4,0-.7.3-.7.6h.2Z"/>
    <path class="st0" d="M348.1,113.1c-2.9-1.2-4.8-3.6-4.8-6.1v-8.7c0-.3-.3-.6-.7-.6h-2v9h0v.2c0,4,3.2,7.5,7.9,8.6h.4v-1.3c0-.6-.4-1.1-1-1.3v.2h.2Z"/>
    <path class="st0" d="M392.1,103h-1.4v11.6c0,.6.6,1.2,1.4,1.2h1.4v-11.6c0-.6-.6-1.2-1.4-1.2Z"/>
    <path class="st0" d="M400.8,97.6h-18.9v1.1c0,.6.6,1.2,1.4,1.2h18.9v-1.1c0-.3,0-.5-.3-.8s-.6-.4-1.1-.4h0Z"/>
    <path class="st0" d="M431.5,97.6c-6.2,0-11.3,4.1-11.3,9.1s5.1,9.1,11.3,9.1,11.3-4.1,11.3-9.1-5.1-9.1-11.3-9.1ZM440.2,106.7c0,3.8-3.9,6.8-8.6,6.8s-8.6-3.1-8.6-6.8,3.9-6.8,8.6-6.8,8.6,3.1,8.6,6.8Z"/>
    <path class="st0" d="M488.5,98.2l-11.1,15.6-11.1-15.6c-.3-.3-.8-.6-1.3-.6h-1.5v18h1c.9,0,1.7-.5,1.7-1.2v-12.3l9.3,12.8c.3.5,1,.8,1.8.8h.3c.8,0,1.4-.3,1.8-.8l9.3-12.8v12.3c0,.6.8,1.2,1.7,1.2h1v-18h-1.5c-.6,0-1.1.2-1.3.6h0Z"/>
    <path class="st0" d="M523.1,97.6c-6.2,0-11.3,4.1-11.3,9.1s5.1,9.1,11.3,9.1,11.3-4.1,11.3-9.1-5.1-9.1-11.3-9.1ZM531.7,106.7c0,3.8-3.9,6.8-8.6,6.8s-8.6-3.1-8.6-6.8,3.9-6.8,8.6-6.8,8.6,3.1,8.6,6.8Z"/>
    <path class="st0" d="M571.3,97.6h-18.9v1.1c0,.6.6,1.2,1.4,1.2h18.9v-1.1c0-.3,0-.5-.3-.8s-.6-.4-1.1-.4h0Z"/>
    <path class="st0" d="M562.5,103h-1.4v11.6c0,.6.6,1.2,1.4,1.2h1.4v-11.6c0-.6-.6-1.2-1.4-1.2Z"/>
    <path class="st0" d="M609.8,113.3c-1-1-2.3-2.3-5.5-5.5h0c1.9,0,3.8-.6,5.1-1.8.9-.9,1.5-2.1,1.5-3.3s-.5-2.3-1.5-3.3c-1.3-1.2-3.1-1.9-5.1-1.8h-15.1v.6c0,.9.9,1.6,1.9,1.6h13.3c2.1,0,3.7,1.3,3.7,2.8s-1.7,2.8-3.7,2.8h-6l.6.6c6.7,6.6,8.7,8.6,9.3,9.1h0l.5.5h0c.3,0,.6.2.9.2h2.6l-.6-.6c-.9-.9-1.4-1.4-2-2h.2-.1Z"/>
    <path class="st0" d="M635,97.6h-1.4v16.9c0,.6.6,1.2,1.4,1.2h1.4v-16.9c0-.6-.6-1.2-1.4-1.2Z"/>
    <path class="st0" d="M677.3,97.6h-18.5v.9c0,.6.6,1.2,1.4,1.2h18.5v-1.1c0-.6-.5-1-1.4-1Z"/>
    <path class="st0" d="M677.3,113.7h-15.3c3.2-2.7,9-7.3,12-9.7l.7-.6h-1.9c-.9,0-1.8.3-2.4.8,0,0-.6.4-10.6,8.4-.7.6-1.1,1.3-1.1,2.2v1h19.9v-1.1c0-.7-.7-1.1-1.4-1.1h0Z"/>
  </g>
  <g>
    <path class="st0" d="M208,41.9h-31.4v1c0,1.7,1.7,3,3.7,3h28c4.6,0,8.2,2.9,8.2,6.4s-3.7,6.4-8,6.4h-31.8v20.8h2.5c1.4,0,2.6-.9,2.6-2.1v-14.8h26.8c7.1,0,12.9-4.7,12.9-10.4s-1.1-4.8-3-6.6c-2.6-2.5-6.3-3.9-10.4-3.8h-.1Z"/>
    <path class="st0" d="M270.7,41.9h-2.5v35.6c0,1.2,1.1,2.1,2.6,2.1h2.5v-35.6c0-1.2-1.1-2.1-2.6-2.1Z"/>
    <path class="st0" d="M344.9,41.8c-12.9,0-23.5,8.4-23.5,18.8s10.5,18.8,23.5,18.8,23.5-8.4,23.5-18.8-10.5-18.8-23.5-18.8ZM363.5,60.7c0,8.2-8.3,14.9-18.6,14.9s-18.6-6.6-18.6-14.9,8.3-14.9,18.6-14.9,18.6,6.6,18.6,14.9Z"/>
    <path class="st0" d="M447.2,44v31l-30.3-32.6c-.3-.3-.7-.5-1.1-.5h-5.7v20.8h2.5c1.4,0,2.6-.9,2.6-2.1v-14.2l30.2,32.6c.3.3.7.5,1.1.5h5.7v-37.7h-2.5c-1.4,0-2.6.9-2.6,2.1h0Z"/>
    <path class="st0" d="M624.1,74.7c-2.1-2.1-4.9-5-12.3-12.2h1c4,0,7.7-1.3,10.3-3.8,1.9-1.9,3-4.2,3-6.5s-1.1-4.8-3-6.5c-2.6-2.5-6.3-3.9-10.3-3.8h-31.3v1c0,1.7,1.7,3,3.7,3h27.9c4.6,0,8.1,2.8,8.2,6.3,0,3.6-3.7,6.3-8.2,6.3h-11.9l.6.6c15.6,15.3,19.1,18.7,19.9,19.5h0l.5.5h.3c.5.2,1.1.3,1.8.3h4.7l-.6-.6c-1.8-1.8-2.9-2.9-4.3-4.3h0v.2Z"/>
    <path class="st0" d="M691.9,41.8c-12.9,0-23.5,8.4-23.5,18.8s10.5,18.8,23.5,18.8,23.5-8.4,23.5-18.8-10.5-18.8-23.5-18.8ZM710.6,60.7c0,8.2-8.3,14.9-18.6,14.9s-18.6-6.6-18.6-14.9,8.3-14.9,18.6-14.9,18.6,6.6,18.6,14.9Z"/>
    <path class="st0" d="M784.1,58.7h-2.7v1.9c0,1.1,1.1,2.1,2.5,2.1,5.4,0,8.2,3.4,8.2,6.4s-3.5,6.2-7.6,6.3h-28.6c-1.4,0-2.6.9-2.6,2.1v1.9h27.4c5.7,0,4,0,4.2,0,6.8-.5,12-5,12-10.4s-5.7-10.4-12.9-10.4h0Z"/>
    <path class="st0" d="M765.6,62.6h2.6v-1.9c0-1.2-1.2-2.1-2.6-2.1-4.5,0-8.1-2.9-8.1-6.4s3.7-6.4,8-6.4h26.9c1.4,0,2.6-.9,2.6-2.1v-1.9h-29c-4.1,0-7.8,1.3-10.4,3.8-1.9,1.9-3,4.2-3,6.6,0,5.7,5.7,10.4,12.9,10.4h.2-.1Z"/>
    <path class="st0" d="M542,43.8v-1.9h-43.7v4h41.1c1.4,0,2.6-.9,2.6-2.1h0Z"/>
    <path class="st0" d="M540.2,75.5h-36.8v-12.9h31.8c1.4,0,2.6-.9,2.6-2.1v-1.9h-39.4v18.7c0,1.2,1.1,2.1,2.6,2.1h41.8v-1.9c0-1.2-1.1-2.1-2.6-2.1h0Z"/>
  </g>
  <g>
    <path class="st0" d="M96,14c-10.4-1.5-21.4-2.2-32.4-2.2h0c-11,0-21.9.7-32.4,2.2-8.2,1.2-16.4,2.9-24.4,5.1,0,.2.6,0,.8,0,2.4-.4,5-1.1,7.3-1.6,15.9-3,32.2-4.5,48.6-4.4h0c16.4,0,32.7,1.4,48.6,4.4,2.4.5,5.1,1.2,7.3,1.6.2,0,.8.2.8,0-8-2.2-16.2-4-24.4-5.1h.2Z"/>
    <path class="st0" d="M123.6,24.4c-8.2-2.5-16.5-4.6-25.1-6-11.3-2-23.1-2.9-35.1-2.8-11.9,0-23.8.8-35.1,2.8-8.4,1.5-16.8,3.7-25.1,6-.5.3.5,10.5.6,11.9.6,5.5,1.4,11.1,2.4,16.5l5.5,2.3c-1.3-8.5-2.7-17.2-2.6-25.9,9.9-3.6,20.4-5.5,30.8-6.7,7.6-.9,15.5-1.3,23.4-1.4,7.9,0,15.8.5,23.4,1.4,10.5,1.2,20.9,3.2,30.8,6.7,0,8.7-1.3,17.3-2.6,25.9l5.5-2.3c1-5.5,1.8-11,2.4-16.5,0-1.4,1.1-11.5.6-11.9,0,0,.2,0,.2,0Z"/>
    <path class="st0" d="M100.2,94.6c-2.1,3.1-4.4,6-6.8,8.9-6.3,7.1-13.6,13.2-22.1,17.5-1.1.6-5.7,2.8-7.6,3.4-1.9-.5-6.4-2.8-7.6-3.4-8.5-4.4-15.8-10.4-22.1-17.5-2.5-2.8-4.8-5.7-6.8-8.9h-5.4c1.9,3.1,4,6.1,6.1,8.9,9.3,11.7,21.5,21,35.7,26.3,14.3-5.3,26.5-14.5,35.7-26.3,2.3-2.9,4.3-5.8,6.1-8.9h-5.4.2Z"/>
    <path class="st0" d="M94.1,113.4c-8.8,8.3-19.2,14.9-30.5,19.4-11.3-4.5-21.7-11.1-30.5-19.4-3.3-3.1-6-6.4-9.1-9.6l2.6,3.7c9.8,11.9,22.7,21.3,37.1,27,14.4-5.6,27.3-15.1,37.1-27l2.6-3.7c-3.1,3.2-5.9,6.5-9.1,9.6h-.2Z"/>
    <path class="st0" d="M67.6,40.7c0-1.1-2.1-3-3.3-4-.3-.2,0-.7.2-.7h16.1c.4,0,.5-.6,0-.7l-12.9-3.5s-.3-.2-.3-.3l-3.8-27.4c0-.4-.7-.4-.7,0l-3.8,27.4v.3l3.4,3.6c.2.2,0,.6-.3.6h-16.1c-.4,0-.5.6,0,.7l12.7,3.5.3.3,3.8,25.8c0,.4.7.4.7,0l3.8-25.6h0s.2,0,.2,0Z"/>
  </g>
</svg>