<?xml version="1.0" encoding="UTF-8"?>
<svg id="Layer_1" xmlns="http://www.w3.org/2000/svg" version="1.1" viewBox="0 0 800 800">
  <!-- Generator: Adobe Illustrator 29.5.0, SVG Export Plug-In . SVG Version: 2.1.0 Build 137)  -->
  <defs>
    <style>
      .st0 {
        fill: #fff;
      }
    </style>
  </defs>
  <path class="st0" d="M751.4,506.1c-42.8,8.6-86.8,8.5-130,13.5-9.2,1.1-14.2,2.2-20.5,9.5,53.1-3.6,106.3-7.7,158.7-17.2,1.5-1.6-6.3-6.8-8.1-5.8Z"/>
  <path class="st0" d="M793.5,456.1c.9-12.3-5.6-38.9-9.5-50.4-3.1-8.9-7.6-17.2-13.4-24.4-.2-.2-.3-.4-.5-.6-.4-.5-.8-1-1.2-1.4l-1.1-1.2c-.3-.4-.6-.8-.9-1.1,0,0-2.6-3.3-7.4-7.3-2.3-1.9-4.6-3.6-6.9-5.2-.4-.3-.9-.6-1.3-.8l-.3-.2c-25.5-16.4-56.9-24.7-78.3-29.5-10.2-2.3-20.1-4.2-29.3-5.9-11.4-2.1-22.1-4.1-31.9-6.4-17.1-4-29.3-13.4-42.3-23.3-4.6-3.5-9.4-7.2-14.6-10.8-60.4-41.5-96.8-54.2-169.4-59.4-104.9-7.4-189.8,4-252.1,33.9-8.9,4.3-18.5,10.1-27.7,15.8h-.2c-14,8.7-28.4,17.5-41.4,21.6-2.9.9-6.2,1.6-9.8,2.4h0c-8.9,1.9-19,4.1-24.9,10-14.6,14.5-17.3,33.1-18.7,50.9l-.2,2h.4c-.1,1.6-.2,3.2-.4,4.7-.3,3.6-.5,7.3-.9,10.9-.3,2.9-.8,6-1.4,9-.7,3.7-1.3,7.5-1.5,11.1-.7,12.2,2.7,40.7,8,51.3,1.9,3.7,5,6.8,7.8,9.6.4.4.8.8,1.2,1.1,0,0,0,.2,0,.3l1.1,1.8c.5.5.9,1,1.3,1.5.3.4.5.8.7,1.1,1.3,2.5,2.3,7.1,3.3,11.6.9,4,1.9,8.2,3.1,11.4,3.5,9.1,13.9,30.4,34.5,33.2,7.9,1.1,36.6-1.1,43.9-3.4,10.7-3.2,20.3-12.9,24.6-24.7l.6-.3,219.3,33.2c11.6,25.7,26.5,40.7,44.3,44.6,3.8.8,10,1.2,17.1,1.2,16.8,0,38.9-2.2,47.5-5.9,9.3-4,18.5-12.5,24.2-22.4,7.6,0,15.3.3,22.8.5,13,.4,26.4.8,39.6.3,14-.5,28.7-1.9,42.9-3.2,10.7-1,21.8-2,32.6-2.7,2.1-.1,4.7-.5,7.3-1,3.2-.5,6.5-1,8.8-1,1.1,0,4.9,2.7,7.2,4.2,2.7,1.8,5.2,3.6,7.2,4.4,16.2,7,52,4.7,68.3-4.5,5.2-2.9,8.1-6.1,11-9.1,1.6-1.7,3.1-3.4,5.1-5,2.6-2.2,17.4-3.9,24.6-4.7,2.8-.3,5.2-.6,6.8-.8,10.8-1.7,21-10.5,19.3-22.3-.3-1.9-1.1-3.8-2-5.7-.7-1.5-1.4-3-1.6-4.2-1-6.2.7-13.9,2.3-21.3,1-4.8,2-9.4,2.3-13.6ZM619.2,440.6c2.1-3.2,13.1-12.8,16.3-13.9,4.2-1.4,11.2-2.1,16.8-2.7,1.3-.1,2.5-.2,3.6-.4,14.9-1.6,31.6-2.9,47-3.5,1.6,0,3.3-.1,5.1-.2,5.5-.3,11.8-.6,17.5-.6s7.3.1,10.3.5c4.5.5,11.7,8.8,11.6,13.2-.4,12.7-12.3,14.5-23.9,16.2-1.5.2-2.9.4-4.3.7-20.5,3.5-47.4,5.3-69.7,4.9-1,0-1.9,0-2.9,0-1,0-2,0-2.9,0-1.2,0-2.4,0-3.5-.2-1.2,0-2.3-.1-3.4-.2-.4,0-.9,0-1.3,0-.9,0-1.7-.1-2.6-.2-2.5-.2-5.1-.6-7-1.7-1.8-1.1-5.9-6.7-6.7-10.2,0-.2,0-.3,0-.5,0-.5,0-.9,0-1ZM586.9,412c.5,0,1,.2,1.5.2.3,0,.7.1,1,.2.3,0,.6,0,.8.1.6.1,1.3.2,1.9.3.6.1,1.2.2,1.7.3,0,0,0,0,.1,0,.3,0,.6.1.9.2.3,0,.6.1.8.2.5,0,1,.2,1.5.3.5,0,.9.2,1.3.3.5.1,1.1.2,1.6.3,0,0,0,0,.1,0,.4.1.9.2,1.3.3,1.1.3,2,.5,2.7.8,1.2.4,1.9.8,2.2,1.1,1.5,2.1-1.6,5.1-4.9,8-.4.4-.9.8-1.2,1.1-11.2,10.3-16.5,11.6-31.4,11-12.5-.5-54.4-2.6-68.3-10.1-4.7-2.6-10.7-7.5-14.3-10.9-4.3-4-13.5-14.3-13.8-16.3,0-.9.4-2.5.7-2.8,0,0,0,0,.1,0,0,0,.1,0,.2-.1,0,0,0,0,.1,0,0,0,.1,0,.2,0,0,0,.2,0,.3,0,.2,0,.4,0,.6-.1.1,0,.3,0,.4,0,.2,0,.5,0,.7,0,.4,0,.9,0,1.5,0s.3,0,.5,0c.2,0,.3,0,.5,0s.5,0,.7,0c0,0,0,0,0,0,.5,0,.9,0,1.4,0,.6,0,1.3,0,2,.1.2,0,.3,0,.5,0,0,0,.2,0,.3,0h.6c.6,0,1.2.1,1.8.2,0,0,.1,0,.2,0,1.8.2,3.6.4,5.4.6.5,0,1,.1,1.6.2,0,0,0,0,0,0,.5,0,1,.1,1.5.2.3,0,.6,0,.9.1,1,.1,1.8.2,2.4.3,24,2.8,52.1,7.2,85.8,13.5.8.1,2,.3,3.4.6ZM593.2,478.9h-57.2c-8.7,1.5-14.2,13.6-19,24.3-2.2,4.9-4.3,9.5-6.3,12.2h0c-.2.5-1.4,1.2-3.6,1.5-2.3.3-4.2.1-4.9-.2,3.8-13.8,12.6-37.4,22-42.1,7.6-3.8,24.6-2.3,34.7-1.5l2.2.2c12.9,1.1,23.1,2.8,32.2,5.3v.2ZM575.1,320h0s0,0,0,0h0ZM574.9,319.8l-.2.2h0l.2-.2ZM324.1,261.9s0,0,0,0c3-1,8.1-1.6,10.6-1.9.5,0,.9-.1,1.3-.2h.4s0,0,0,0h.3c2.2-.4,4.5-.7,7-1,20.8-2.5,47.5-4,71.4-4s23,.4,32.7,1.1c9.8.7,18.3,1.8,25.3,3.2,16.4,3.3,43.5,20,63.4,33.5,9.6,6.5,18.1,12.6,23.4,16.6,0,0,0,0,0,0,2.9,2.1,5,3.8,6.3,4.7.1,0,.3.2.5.4h0l.3.2.3-.4s0,0,0,0l-.3.4h0s.1.1.1.1c.5.3,1.1.8,1.8,1.3.4.3.8.6,1.3.9,1.6,1.2,3,2.3,3.9,3.2h-3c-4.2,0-8.4.1-12.7.2h0s0,0,0,0c-8.6.1-20,.3-31.3.7-8.5.3-17.8.7-29.4,1.3-7.4.4-14.8.8-22.1,1.1-16.4.9-33.3,1.7-50.4,2.4,0,0,0,0,0,0-10.6.4-20,.7-28.9.9-1.7,0-3.2.1-5,.2h0c-1.3,0-2.5.2-3.8.2-3.4.1-6.6,0-9.9-1.2-1.2-.4-2.4-1-3.6-1.7,0,0,0,0,0,0-.3-.2-.6-.4-.9-.6h0c-.3-.2-.5-.4-.8-.6h0c0,.1,0,0,0,0h-.2c0-.1,0-.2,0-.2-.6-.4-1.2-1-1.8-1.5l-.2-.2h0s0,0-.1-.1c-.5-.5-1.1-1.1-1.7-1.6-.4-.4-.9-.9-1.3-1.4,0,0,0,0-.1-.1-.1-.1-.2-.2-.3-.3,0-.1-.2-.2-.3-.4,0,0,0,0,0,0,0-.1-.2-.2-.3-.3l-.2-.3h0s-.5-.6-.5-.6c-.3-.3-.6-.6-.9-1t0,0h0s0-.1,0-.1h0s0,0,0,0c-.2-.3-.5-.6-.7-.9,0,0,0-.1-.1-.2,0,0-.1-.2-.2-.3-.4-.5-.8-.9-1.1-1.4,0,0-.1-.2-.2-.3h0c-4.2-5.2-8.6-11.2-12.4-16.5h0c-.8-1.3-1.7-2.4-2.5-3.5-1.1-1.5-2.2-3-3.2-4.4-1.2-1.6-2.4-3.1-3.4-4.4-.3-.4-.8-1-1.5-1.7-.7-.7-1.5-1.6-2.4-2.6l-.5-.5c-3.1-3.4-8.3-9.1-11.2-12.9h0c-1.1-1.4-1.6-2.2-1.9-2.6.2-.1.7-.4,1.4-.6ZM136.8,295.4c14.7-10.8,43.4-20.6,69.7-26.1,3.1-.7,6.2-1.2,9.2-1.8,1.8-.3,3.6-.6,5.4-.9.9-.1,1.9-.3,2.8-.4.8-.1,1.6-.2,2.4-.3,1.1-.1,2.3-.3,3.4-.4,1.1-.1,2.2-.2,3.2-.3,5.5-.5,10.4-.6,14.6-.4,43.5,2.5,64,34.9,85.5,69.3-8.2-.9-16.5-1.8-24.7-2.7-45.8-5-93.1-10.3-138.5-19.1-1.1-.2-2.3-.4-3.8-.7-8.9-1.6-25.5-4.7-29.6-9.5-1.6-1.9-2.3-3.1-2.2-3.8,0-.7.9-1.6,2.6-2.9ZM25.5,350.1l-2.1.9.4-1.9,3.7-16,11.5-1.2v1.8c-.2,3.1-6.2,10.1-8.6,12.6-.9,1-1.8,1.8-2.5,2.4-.7.6-1.3,1-1.7,1.2l-.7.3ZM789.7,455.8c-.3,4-1.2,8.4-2.3,13.1-1.7,7.8-3.4,15.9-2.3,22.7.3,1.7,1.1,3.5,1.9,5.2.7,1.6,1.5,3.2,1.7,4.6,1.4,9.4-7.1,16.5-16.1,17.9-1.5.2-3.9.5-6.6.8-12.7,1.5-23.4,2.9-26.6,5.6-2.1,1.8-3.8,3.6-5.4,5.3-2.8,3-5.4,5.8-10,8.4-15.3,8.6-49.8,10.9-64.9,4.4-1.6-.7-4.1-2.4-6.6-4.1-4.4-3-7.2-4.9-9.3-4.9-2.6,0-6.1.5-9.5,1-2.6.4-5,.8-7,.9-10.9.7-22,1.7-32.8,2.7-14.1,1.3-28.7,2.6-42.6,3.1-13.1.5-26.4,0-39.3-.3-7.9-.2-16-.5-24-.5h-1.1s-.6,1-.6,1c-5.1,9.4-14.1,17.9-22.9,21.7-11.5,5-50.1,7.1-62.2,4.5-16.8-3.7-31-18.3-42.1-43.4l-.4-1-222-33.6h-.6c0,0-3.1,1.5-3.1,1.5l-.3.7c-3.8,11-12.6,20-22.4,23-6.6,2-35.1,4.2-42.3,3.2-18.6-2.5-28.2-22.4-31.5-30.8-1.1-2.9-2-6.9-2.9-10.8-1.1-4.9-2.2-9.6-3.7-12.5-.3-.5-.6-1.1-1-1.6-.5-.6-1-1.3-1.7-2l-.2-1c-.2-1.6-.4-3.3-.6-5.3h0c-.4-4.8-.6-10.1-.5-15.6h0c0-.8,0-1.8,0-2.8,2.2-32.1,8.9-52.2,20.2-61.3.1-.1.3-.2.4-.3,0,0,.1-.1.2-.2,0,0,.1-.1.2-.2,0,0,.2-.1.3-.2,0,0,.2-.1.2-.2.1-.1.3-.2.5-.3.2-.1.4-.3.6-.4.2-.1.4-.3.6-.4,8.4-5,16.4-6.3,23.7-3.9,12.9,4.1,21.6,18.7,26.7,30.2.2.4.4.8.5,1.3l.2.6c.2.4.4.9.6,1.3.1.3.2.5.3.8.2.5.4.9.5,1.4v.3c.4.9.8,1.8,1.1,2.7,0,.3.2.6.3.9.1.3.2.6.3.9h0c.1.4.2.8.3,1.1h0c0,.3.1.5.2.7.2.5.4,1.1.5,1.6.1.5.3.9.4,1.4.4,1.4.8,2.7,1.1,4.1,2.4,9.1,3.3,18.7,4.3,27.9.9,8.6,1.7,16.7,3.5,24.5,0,0,0,.1,0,.1,1,5.1,4.8,10.3,9.8,11.7s30.5,5,38.4,6.2l30.5,4.7c11.5,1.8,22.9,3.5,34.4,5.3,11.7,1.8,23.5,3.6,35.2,5.4,11,1.7,21.9,3.4,32.9,5.1,9.2,1.4,18.3,2.8,27.5,4.2,6.3,1,12.7,1.9,19,2.9,2.5.4,4.9.8,7.4,1.1,0,0-.5-4.5-.5-4.5-3.4-31.8-4.5-68.1,13-95.6,8.6-13.4,20.5-21.8,33.7-23.8,13-1.9,26.6,2.7,38.4,12.8,24.2,20.9,33,59.2,36.1,87.6.4,3.8.5,8.2.7,12.1.2,6,.3,12.1,1.4,17.7,1.6,8.4,6.9,10.5,10,10.9,3.3.5,9.2.8,13.5,1h2c11.3.6,24,.9,35.8.9s21.9-.3,30.6-.8c17.2-1.1,28.1-9.8,38.6-18.3,9.2-7.4,18.6-15,32.5-17,11.9-1.7,24.9-2.5,37.4-3.3,7.5-.5,15.2-.9,22.5-1.6,5.9-.5,12-1.4,17.5-2.2h0c7.7-1.1,15.7-2.2,23.4-2.6,6.5-.3,11.6-.5,16.4,2.8,1.6,1.1,5.1,4.9,7.9,8,5.6,6,8.6,9.2,11,9.9,2.5.8,5.3.2,7.8-1.4,2.5-1.7,4.1-4.2,4.4-6.8.2-1.8-.7-3.6-2.1-6.8v-.2c-.6-1.1-1.2-2.4-1.3-3-1.8-6.4-.4-13.7.9-20.9.8-4.1,1.6-8.4,1.8-12.7l.2-4.6s-5.6,2.5-11.5,3.9c.9-1.5,8.9-5,10-6l.4-2.6.2-.5s0,0,0-.1v-.2c0,0,0,0,0,0,.9-4.6-3.9-27.7-6-30.9-.6-.9-1.3-1.2-1.9-1.2h-.7s-.6.4-.6.4c-5.2,3.9-7.6,4.5-12.5.5-.3-.2-.7-.7-1.2-1.2,0,0-.1-.2-.2-.2l-5.2-7.2-.8-1.2v-1.5s0-.1,0-.2v-.2c.1,0,.2-.2.2-.2l.4-.8s0,0,0,0l.4-.7c0-.1.1-.2.2-.4,0,0,0-.1.1-.2.2-.4.4-.7.7-1.1l.3-.4c.1-.2.2-.4.4-.6l.5-.8.5-.9c0-.2.2-.3.3-.5l.3-.5c.2-.4.5-.7.7-1.1.1-.2.3-.4.4-.7l.9-1.4c.2-.4.5-.8.7-1.1l4-6.1c1.6-2.5,2.9-4.5,3.8-6,5.4,6.8,9.6,14.5,12.5,22.9,3.8,11.2,10.2,37,9.3,48.8Z"/>
  <path class="st0" d="M62.8,395.6c-10.2,1.5-17.8,13.8-21.2,23.8-6.7,19.9-5.7,46.2,2.5,65.4,5.4,12.7,13.5,19.9,22.4,19.9s.4,0,.6,0c9.7-.4,18.4-9.2,23.3-23.6,6-17.6,6.1-40.7.3-58.7-4.4-13.6-14.3-28.7-27.9-26.7ZM86.8,479.8c-4.3,12.6-11.8,20.6-19.8,21-7.4.3-14.4-6.1-19.3-17.6-7.7-18.1-8.7-43.8-2.4-62.6,3.2-9.4,10.1-20,18.1-21.2.6,0,1.2-.1,1.8-.1,11,0,18.9,14.9,21.9,24.2,5.6,17.3,5.5,39.4-.2,56.3Z"/>
  <path class="st0" d="M397.3,422.4c-19.5,3.3-33.2,25.9-35,57.6-1.7,30.4,8.8,66.7,36,74.5,3,.9,5.9,1.3,8.8,1.3,5.5,0,10.8-1.6,15.8-4.7,14.5-8.9,22.7-27.9,25.3-41.4,1-5,1.4-10.6,1.4-16.4,0-21.5-6.5-46.6-20-60.4-8.9-9.1-19.8-12.6-32.4-10.5ZM444.4,509c-2.6,13.8-10.9,31.1-23.6,38.9-6.7,4.1-14,5.1-21.6,3-25.1-7.2-34.8-41.6-33.2-70.6,1.3-22.7,10.4-50.5,31.8-54.1,2.1-.4,4.2-.5,6.2-.5,8.7,0,16.3,3.3,22.8,9.9,16.3,16.7,21.8,51.1,17.5,73.4Z"/>
  <path class="st0" d="M71.1,465.5c-.9.5-2.7,3.9-2.8,4.8-1.1,6.2,0,18.8,0,25.8s14.4-3.7,14.4-10.5c0-1.7-7.9-18.7-9.1-19.7-.8-.7-1.4-1.4-2.5-.5Z"/>
  <path class="st0" d="M415.6,507.3c-1.1-.3-2.1-.3-3.2.3-.9.5-1.3,1.3-1.7,2.2-1.4,3.5-2.1,31.9-.7,34.6,2.5,5.2,14.6-3.2,17.4-6.1,2.9-3,4.8-4.9,3.4-9-.9-2.6-13.4-21.6-15.3-22.1Z"/>
</svg>