<?xml version="1.0" encoding="UTF-8"?>
<svg id="Layer_1" xmlns="http://www.w3.org/2000/svg" version="1.1" viewBox="0 0 800 800">
  <!-- Generator: Adobe Illustrator 29.5.0, SVG Export Plug-In . SVG Version: 2.1.0 Build 137)  -->
  <defs>
    <style>
      .st0 {
        fill: #a36627;
      }
    </style>
  </defs>
  <path class="st0" d="M36.8,262.6v471.3h734.9v-471.3s-734.9,0-734.9,0ZM257.7,454.2h-54v54h-39.2v-54h-54.1v-39.2h54.1v-54h39.2v54h54v39.2ZM352.4,553.6l50.2-99h-50.2l104.3-120.3-38.6,90.8,47.3-1.1-113,129.7ZM699.3,454.2h-147.3v-39.2h147.3v39.2Z"/>
  <rect class="st0" y="177.1" width="800" height="56.3"/>
  <path class="st0" d="M184.1,108.8v48.7h-85.5v-48.7c0-23.7,19.1-42.7,42.7-42.7s22.4,4.7,30.2,12.5c7.7,7.7,12.5,18.4,12.5,30.2Z"/>
  <path class="st0" d="M699.3,108.8v48.7h-85.5v-48.7c0-23.7,19.1-42.7,42.7-42.7s22.5,4.7,30.2,12.5c7.8,7.7,12.5,18.4,12.5,30.2Z"/>
</svg>