<?xml version="1.0" encoding="UTF-8"?>
<svg id="Layer_1" xmlns="http://www.w3.org/2000/svg" version="1.1" viewBox="0 0 800 800">
  <!-- Generator: Adobe Illustrator 29.5.0, SVG Export Plug-In . SVG Version: 2.1.0 Build 137)  -->
  <defs>
    <style>
      .st0 {
        fill: #a36627;
      }
    </style>
  </defs>
  <path class="st0" d="M604.2,419.5c10.2-84.2-26.7-156.2-84.2-203.3l92.2-92.2c-64.8-57.5-150.4-92.3-243.9-92.3C164.9,31.7,0,196.6,0,400s164.9,368.3,368.3,368.3,357.6-154.5,367.7-348.7h-131.8ZM368.3,616.3c-119.4,0-216.2-96.8-216.2-216.3s96.7-216.3,216.2-216.3,216.3,96.8,216.3,216.3-96.8,216.3-216.3,216.3Z"/>
  <path class="st0" d="M368.3,197c-111.9,0-202.9,91.1-202.9,203s91,203,202.9,203,203-91.1,203-203-91-203-203-203ZM367.9,236.7c15.4,0,28,12.6,28,28s-12.6,28-28,28-28-12.5-28-28c0-15.4,12.5-28,28-28ZM239.4,387.5c-15.5,0-28-12.5-28-28s12.5-28,28-28,28,12.6,28,28c0,15.5-12.5,28-28,28ZM288,539.1c-15.5,0-28-12.6-28-28s12.5-28,28-28,28,12.5,28,28c0,15.4-12.6,28-28,28ZM283,400c0-47.2,38.1-85.3,85.3-85.3s85.3,38.1,85.3,85.3-38.3,85.2-85.3,85.2-85.3-38.1-85.3-85.2ZM448.1,539.1c-15.4,0-27.9-12.6-27.9-28s12.5-28,27.9-28,28,12.5,28,28-12.5,28-28,28ZM497.1,387.5c-15.5,0-28-12.5-28-28s12.5-28,28-28,28,12.6,28,28-12.6,28-28,28Z"/>
  <path class="st0" d="M618.8,406.3c4.3-72.2-24-140.4-79.3-190.8l128.3-128.3c82.4,87.1,128.9,199.5,132.1,319.1h-181.2Z"/>
</svg>