<?xml version="1.0" encoding="UTF-8"?>
<svg id="Layer_1" xmlns="http://www.w3.org/2000/svg" version="1.1" viewBox="0 0 800 800">
  <!-- Generator: Adobe Illustrator 29.5.0, SVG Export Plug-In . SVG Version: 2.1.0 Build 137)  -->
  <defs>
    <style>
      .st0 {
        fill: #a36627;
      }
    </style>
  </defs>
  <path class="st0" d="M733.7,155.7H66.3c-11.5,0-20.9,8.6-20.9,19v395.9c0,10.5,9.4,19,20.9,19h667.4c11.5,0,20.8-8.5,20.8-19V174.7c0-10.4-9.3-19-20.8-19ZM724.4,552H75.6V191.6h648.8v360.4Z"/>
  <path class="st0" d="M800,604.7c0,21.9-16.2,39.6-36.1,39.6H36.1c-19.9,0-36.1-17.7-36.1-39.6h800Z"/>
  <path class="st0" d="M523,343c-15.1-4.4-36.9-6.6-46.9-6.6s-1.7,0-2.8-.1h-6.8l.2,1.6c2,16.2,2.9,29.3,2.8,41.2v1.6h1.5c46.7-2.9,95.2-6.7,97.9-7.8.9-.3,1.5-1,1.5-2-.1-5.4-34.7-24.2-47.3-27.8ZM472.3,377.6c0-11.2-.8-23.5-2.7-38.5h3.7c1.1.1,2,.1,2.8.1,9.7,0,31.2,2.2,46.1,6.5,13.9,3.9,41.2,20,45,24.6-6.5,1-46.7,4.4-94.9,7.3ZM523,343c-15.1-4.4-36.9-6.6-46.9-6.6s-1.7,0-2.8-.1h-6.8l.2,1.6c2,16.2,2.9,29.3,2.8,41.2v1.6h1.5c46.7-2.9,95.2-6.7,97.9-7.8.9-.3,1.5-1,1.5-2-.1-5.4-34.7-24.2-47.3-27.8ZM472.3,377.6c0-11.2-.8-23.5-2.7-38.5h3.7c1.1.1,2,.1,2.8.1,9.7,0,31.2,2.2,46.1,6.5,13.9,3.9,41.2,20,45,24.6-6.5,1-46.7,4.4-94.9,7.3ZM523,343c-15.1-4.4-36.9-6.6-46.9-6.6s-1.7,0-2.8-.1h-6.8l.2,1.6c2,16.2,2.9,29.3,2.8,41.2v1.6h1.5c46.7-2.9,95.2-6.7,97.9-7.8.9-.3,1.5-1,1.5-2-.1-5.4-34.7-24.2-47.3-27.8ZM472.3,377.6c0-11.2-.8-23.5-2.7-38.5h3.7c1.1.1,2,.1,2.8.1,9.7,0,31.2,2.2,46.1,6.5,13.9,3.9,41.2,20,45,24.6-6.5,1-46.7,4.4-94.9,7.3ZM523,343c-15.1-4.4-36.9-6.6-46.9-6.6s-1.7,0-2.8-.1h-6.8l.2,1.6c2,16.2,2.9,29.3,2.8,41.2v1.6h1.5c46.7-2.9,95.2-6.7,97.9-7.8.9-.3,1.5-1,1.5-2-.1-5.4-34.7-24.2-47.3-27.8ZM472.3,377.6c0-11.2-.8-23.5-2.7-38.5h3.7c1.1.1,2,.1,2.8.1,9.7,0,31.2,2.2,46.1,6.5,13.9,3.9,41.2,20,45,24.6-6.5,1-46.7,4.4-94.9,7.3ZM523,343c-15.1-4.4-36.9-6.6-46.9-6.6s-1.7,0-2.8-.1h-6.8l.2,1.6c2,16.2,2.9,29.3,2.8,41.2v1.6h1.5c46.7-2.9,95.2-6.7,97.9-7.8.9-.3,1.5-1,1.5-2-.1-5.4-34.7-24.2-47.3-27.8ZM472.3,377.6c0-11.2-.8-23.5-2.7-38.5h3.7c1.1.1,2,.1,2.8.1,9.7,0,31.2,2.2,46.1,6.5,13.9,3.9,41.2,20,45,24.6-6.5,1-46.7,4.4-94.9,7.3ZM252.8,415.8l-.8-2.7c-21.3,5-37,24.2-37,47s.2,5.9.8,9h-21.3q-6,0-12.5-.4l-6.5-.3c-2.9-.1-5.3-.8-6.8-1.8-.6-.6-.9-.9-1.1-1.2l-.2-.3c-.1-.3-.2-.6-.3-.8-.2-1.1-.1-2.2.1-3.4.1-.2.2-.4.2-.7.1-.2.1-.3.1-.4s.1-.2.1-.2v-.4c.4-.6.7-.9.7-.9l.3-.2v-.4c.1-.2.3-.6.4-1,.1-.1.1-.2.2-.4.1-.2.2-.6.2-.6.3-.7.6-1.2.8-2.1.1-.7.2-1.3.2-1.8,0-3.7,0-6.9.2-10.1v-5.6c.1-.8.1-1.7.1-2.4v-1.2c.1-.3.1-.8.1-1.2s0-1.2.1-2.1c0-.6,0-1.1.1-1.9,0-.2,0-.6.1-.8v-.9c.1-1,.2-1.9.3-2.8,1.1-8.4,3.2-11.3,7.5-17.1.9-1.2,1.9-2.6,2.9-4,4.6-6.5,34.4-10.6,62.6-13.7l-.8-2.7c-30.1,3.1-58.8,7.3-64,14.7-1.1,1.6-2,2.9-2.9,4-4.4,6-6.8,9.4-7.9,18.4-.1,1-.3,1.9-.4,3v.8c-.1.4-.1.8-.1.9-.1.7-.1,1.5-.1,1.9-.1.9-.1,1.7-.1,2.4s0,.7-.1,1v1.5c0,.6,0,1.2-.1,2.1v5.8c-.2,3-.2,6.4-.2,10.1s0,.8-.1,1.3c-.1.4-.3.8-.7,1.5,0,.2-.1.3-.2.6-.1.2-.2.4-.4,1l-.2.4c-.1.1-.2.3-.2.4-.1.2-.3.6-.6,1-.1.1-.1.3-.3.9l-.4,1.2c-.2,1.5-.6,3.1-.1,4.9.1.6.4,1,.6,1.5l.2.3c.4.7,1,1.3,1.9,2,2,1.6,4.8,2.4,8.4,2.5l6.4.3q6.7.4,12.8.4h24.7l-.3-1.7c-.8-3.4-1.1-6.7-1.1-10.1,0-21.5,14.9-39.7,35-44.4ZM682.8,419.8c-.1-.8-.3-1.5-.7-2.4-.1-.2-.2-.4-.3-.8-.2-.6-.4-1.2-.8-1.9-.1-.3-.3-.7-.4-.8-.2-.2-.4-.6-.6-.8-.1-.1-.2-.3-.3-.6l-.7-.9c-.7-.7-1.1-1.2-1.3-1.9l-.2-.7c-.2-.7-.3-1.3-.3-2.4s0-1.2-.1-2c0-.3-.1-.6-.1-.8v-.3c-.2-.9-.3-1.8-.7-2.8,0-.2,0-.4-.1-.6l-1.6-6.9c-.3-.8-.6-1.6-.8-2.5l-.4-1.7c-.1-.4-.3-.9-.4-1.2-.9-3.4-1.8-6.3-2.5-8.3-.2-.7-.4-1.2-.6-1.6-.1-.2-.2-.3-.2-.3v-.6c-.8-1.6-3-1.9-14.3-3.4-9.7-1.2-23.2-2.9-31.8-6.2-1.8-.7-4.3-1.7-7.4-3-22-9.4-73.5-31.5-148.6-33.8-1.6-.1-3.2-.1-4.9-.1-2.1-.1-4.4-.1-6.5-.1-44.5-.2-47.1.6-57,3.6-13.7,4.1-48.2,21.7-71.1,33.4-8.8,4.4-15.7,7.9-18,8.8-3.9,1.7-14,3.1-26.6,4.5l-.3,2.8c13.3-1.5,23.7-2.8,28.1-4.7,2.4-1,9-4.4,18.1-9,21.4-10.9,57.2-29,70.7-33.1,9.5-3,12-3.7,56.1-3.5,2.1,0,4.3,0,6.5.1,1.5-.1,3.1,0,4.7.1,74.7,2.4,125.9,24.2,147.7,33.6,3.1,1.3,5.7,2.4,7.5,3.1,9,3.4,22.5,5,32.5,6.3,5,.7,10.6,1.3,12.1,1.9,0,.1.1.3.1.4.2.4.3.9.6,1.6.7,1.9,1.7,4.9,2.5,8.2.2.3.3.8.4,1.2l.4,1.6c.2,1,.4,1.9.8,2.7l1.5,5.8c0,.2,0,.4.1,1v.6c.4.8.6,1.6.7,2.4,0,.3,0,.6.1,1,.1.8.1,1.3.1,1.8,0,1.3.1,2.4.6,3.6.1.1.1.2.1.3.4,1.2,1.2,2,1.9,2.9h.1c.1.3.3.6.3.6l.3.4c.1.2.2.6.6.9l.2.4c.3.6.6,1.1.9,1.9v.4c.4.7.6,1.3.8,2,1.9,7.2,1.2,27.3-.6,31.8-.1.2-.2.4-.2.4-1.2.3-2.6,1.2-4.4,2.6-.6.4-1.1.9-2,1.5-.1.2-.3.3-.7.4-.2.2-.3.3-.6.4l-1.1.8c-.4.3-.9.6-1.3.9-.4.2-.9.6-1.2.8-.9.4-1.7,1-2.7,1.5l-2.1,1.2c-2.1,1.1-5.6,2.1-9.6,3.1-.4,0-.9.1-1.3.2-.3.1-.8.2-1.5.3h-.3c-.3.1-.6.1-.7.2-4.7,1-9.5,1.7-12.6,2.1.6-2.7.8-5.6.8-8.6,0-26.6-21.6-48.3-48.2-48.3s-48.1,21.7-48.1,48.3.2,5.9.8,9h-231.9c.6-3.4.9-6.2.9-9,0-20.6-13-38.3-31.2-45.2l-.3,2.9c16.8,6.6,28.8,23.2,28.8,42.3s-.3,6.3-1.2,10.1l-.3,1.7h238.8l-.3-1.7c-.8-3.4-1.1-6.7-1.1-10.1,0-25.1,20.4-45.6,45.3-45.6s45.4,20.5,45.4,45.6-.3,6.8-1.2,9.8v1.8c-.1,0,1.7,0,1.7,0,3-.3,9-1.1,15-2.5.1-.1.2-.1.3-.1.2,0,.6-.1.6-.1.4-.1.9-.2,1.5-.3.3,0,.7-.1,1.2-.2,4.3-1,8.1-2.1,10.3-3.4l2.2-1.2c1-.4,1.9-1,2.9-1.6.3-.3.8-.6,1.2-.8.4-.3.9-.7,1.6-1.1l1.5-1c.3-.2.8-.4.9-.7.7-.4,1.3-.9,1.9-1.3,1.5-1,2.8-2,3.2-2h.8c0-.1.4-.6.4-.6.3-.3.7-1,1-1.5,2-5.1,2.7-25.8.7-33.5Z"/>
  <g>
    <path class="st0" d="M402.9,381.3c9.7-.3,20.4-.8,31.8-1.5-10.4.4-21.2,1-31.8,1.5ZM458.5,338.9c1.2.1,2.4.1,3.5.1h0c0-.1-3.5-.1-3.5-.1Z"/>
    <path class="st0" d="M467.2,367.9c0-2.5-.2-4.9-.3-7.6-.4-7.1-1.2-14.7-2.2-22.8l-.2-1.2h-1.2c-6.4-.1-14.1-.2-21.9-.2-17,0-28,.4-33.5,1.3-1.9.3-7.7,2.5-15.6,5.6-2.5,1-5.3,2.1-8.2,3.4-22.6,9.6-53.6,24.4-60.5,32.6-.7.9-.7,1.7-.6,2.1.1.7.6,1.1,1.1,1.5.4.3.9.6,1.1.6.2.1.6.2.9.3,3,.9,8.8,1.5,18.2,1.7,3.1.1,6.5.2,10.2.2h2.1c30.2,0,76.2-2.4,109.5-4.4h1.3v-1.5c0-3.7,0-7.5-.2-11.5ZM353.2,378.2c-1.7-.8-3-1.2-4-.6-.9.6-1,1.3-.9,1.8,0,1.1,1,2,2.5,2.9-2.2,0-4.4,0-6.3-.1-7.3-.1-12.5-.6-15.7-1.1.2-.3.6-.6.8-.8,4.6-3.8,9.3-7.8,15.3-11.3,1.6-.9,2.9-1.6,4.1-2.2,1.8-.8,3.4-1.3,5.8-1.6,0,0,3.2,0,3.2,1.8,0,3.7-.6,8.3-.8,10.1-.2,2.2-.9,2.2-1.1,2.2-.9,0-2.1-.5-3-1.1ZM451.7,379c-2.1.1-4.5.2-6.7.3-3.5.2-6.9.4-10.3.6-11.4.7-22,1.1-31.8,1.5-2.2.1-4.4.1-6.6.2-2.8.1-5.5.2-8.1.3-3.5.1-6.8.2-10.2.3-3.2,0-6.5.1-9.5.1-4.1.1-8.2.1-11.9.1h-.8c-.1-.1-.2-.2-.3-.3h.7c1.2,0,3.5-.6,3.9-4.7.2-1.9.8-6.6.8-10.4s-2.6-4.4-5.4-4.6l8.4-4c1.6-.8,3.1-1.6,4.7-2.2,2.4-1,4.6-2,6.8-3,1.8-.9,3.6-1.7,5.4-2.4,9.2-4,17.2-7.3,22.4-9.1.6-.2,1.1-.4,1.7-.6.9-.3,1.7-.6,2.4-.8.4-.1.8-.2,1-.2.8-.1,1.8-.2,2.9-.4,2.6-.2,5.8-.4,9.3-.6,5.6-.2,12.5-.3,20.8-.3s12,.1,17.2.1h3.5c1.9,14.8,2.7,27.6,2.7,39.3-4.5.2-8.7.6-13,.8Z"/>
  </g>
  <path class="st0" d="M179.5,424c-2.3,0-4.6,0-6.9-.1h-4.2c0-.1.2-1.7.2-1.7,1.2-9,3.7-12.5,7.9-18.2l1.1-1.5h2.1c2.5,0,5.1,0,7.6,0,4.7,0,10.9,0,17,.5h1.7c0,.1-.4,1.8-.4,1.8-2.2,8.3-4.9,16-14.5,18.3-3.3.7-7,1-11.7,1ZM171.7,421h1c2.3.1,4.5.2,6.8.2,4.5,0,8-.3,11-.9,7.4-1.8,10-7.6,11.9-14.6-5.5-.3-10.9-.4-15.1-.4s-5.1,0-7.6,0h-.7l-.3.4c-3.9,5.3-6,8.2-7.1,15.4Z"/>
  <path class="st0" d="M234.7,453.9l-.3,1.6c-.2,1.5-.4,3-.4,4.7,0,7.7,3,15,8.6,20.5l1.1,1.1,9-12.4,3.2-4.4,2.4-3.5-23.5-7.6ZM243.3,477.4c-4.3-4.8-6.6-10.9-6.6-17.2s.1-1.8.2-2.6l11.4,3.7,5.5,1.8-10.5,14.3ZM258.5,431.2c-8.8,1.2-16.8,6.9-21.3,15.2l-.8,1.5,14.5,4.7,5.3,1.8,3.9,1.2v-24.6l-1.7.2ZM257.4,451.8l-16.8-5.5c3.8-6.3,10-10.6,16.8-12.1v17.6ZM263.2,455.9c-2.4,0-4.1,1.9-4.1,4.3s1.9,4,4.1,4,4.1-1.9,4.1-4-1.8-4.3-4.1-4.3ZM268.9,472.9l-5.7-7.7-14.7,20.3,1.5.8c4.1,2.1,8.5,3.1,13.2,3.1s9-1.1,13.2-3.1l1.5-.8-9-12.5ZM252.8,484.4l10.4-14.4,10.4,14.3c-6.8,3-14.4,2.9-20.8.1ZM289.2,446.5c-4.3-8.1-12.2-13.8-21.2-15.2l-1.7-.3v24.7l23.6-7.7-.8-1.5ZM269.1,451.8v-17.6c6.9,1.6,13,5.9,16.7,12.1l-16.7,5.5ZM292.1,455.5l-.3-1.6-23.4,7.5,14.5,20.3,1.2-1.1c5.4-5.6,8.3-12.9,8.3-20.5,0-1.6-.1-3.1-.3-4.6ZM283.2,477.4l-10.3-14-.2-.3,16.8-5.4c.1.8.1,1.6.1,2.5,0,6.5-2.1,12.4-6.4,17.2ZM234.7,453.9l-.3,1.6c-.2,1.5-.4,3-.4,4.7,0,7.7,3,15,8.6,20.5l1.1,1.1,9-12.4,3.2-4.4,2.4-3.5-23.5-7.6ZM243.3,477.4c-4.3-4.8-6.6-10.9-6.6-17.2s.1-1.8.2-2.6l11.4,3.7,5.5,1.8-10.5,14.3ZM258.5,431.2c-8.8,1.2-16.8,6.9-21.3,15.2l-.8,1.5,14.5,4.7,5.3,1.8,3.9,1.2v-24.6l-1.7.2ZM257.4,451.8l-16.8-5.5c3.8-6.3,10-10.6,16.8-12.1v17.6ZM263.2,455.9c-2.4,0-4.1,1.9-4.1,4.3s1.9,4,4.1,4,4.1-1.9,4.1-4-1.8-4.3-4.1-4.3ZM268.9,472.9l-5.7-7.7-14.7,20.3,1.5.8c4.1,2.1,8.5,3.1,13.2,3.1s9-1.1,13.2-3.1l1.5-.8-9-12.5ZM252.8,484.4l10.4-14.4,10.4,14.3c-6.8,3-14.4,2.9-20.8.1ZM289.2,446.5c-4.3-8.1-12.2-13.8-21.2-15.2l-1.7-.3v24.7l23.6-7.7-.8-1.5ZM269.1,451.8v-17.6c6.9,1.6,13,5.9,16.7,12.1l-16.7,5.5ZM292.1,455.5l-.3-1.6-23.4,7.5,14.5,20.3,1.2-1.1c5.4-5.6,8.3-12.9,8.3-20.5,0-1.6-.1-3.1-.3-4.6ZM283.2,477.4l-10.3-14-.2-.3,16.8-5.4c.1.8.1,1.6.1,2.5,0,6.5-2.1,12.4-6.4,17.2ZM234.7,453.9l-.3,1.6c-.2,1.5-.4,3-.4,4.7,0,7.7,3,15,8.6,20.5l1.1,1.1,9-12.4,3.2-4.4,2.4-3.5-23.5-7.6ZM243.3,477.4c-4.3-4.8-6.6-10.9-6.6-17.2s.1-1.8.2-2.6l11.4,3.7,5.5,1.8-10.5,14.3ZM258.5,431.2c-8.8,1.2-16.8,6.9-21.3,15.2l-.8,1.5,14.5,4.7,5.3,1.8,3.9,1.2v-24.6l-1.7.2ZM257.4,451.8l-16.8-5.5c3.8-6.3,10-10.6,16.8-12.1v17.6ZM263.2,455.9c-2.4,0-4.1,1.9-4.1,4.3s1.9,4,4.1,4,4.1-1.9,4.1-4-1.8-4.3-4.1-4.3ZM268.9,472.9l-5.7-7.7-14.7,20.3,1.5.8c4.1,2.1,8.5,3.1,13.2,3.1s9-1.1,13.2-3.1l1.5-.8-9-12.5ZM252.8,484.4l10.4-14.4,10.4,14.3c-6.8,3-14.4,2.9-20.8.1ZM289.2,446.5c-4.3-8.1-12.2-13.8-21.2-15.2l-1.7-.3v24.7l23.6-7.7-.8-1.5ZM269.1,451.8v-17.6c6.9,1.6,13,5.9,16.7,12.1l-16.7,5.5ZM292.1,455.5l-.3-1.6-23.4,7.5,14.5,20.3,1.2-1.1c5.4-5.6,8.3-12.9,8.3-20.5,0-1.6-.1-3.1-.3-4.6ZM283.2,477.4l-10.3-14-.2-.3,16.8-5.4c.1.8.1,1.6.1,2.5,0,6.5-2.1,12.4-6.4,17.2ZM279.2,424.1l-.3,3c12.3,5.8,20.9,18.4,20.9,33s-16.5,36.5-36.6,36.5-36.5-16.5-36.5-36.5,12.3-32.2,28.6-35.7l-.8-2.7c-17.6,3.9-30.7,19.6-30.7,38.4s17.6,39.3,39.3,39.3,39.4-17.7,39.4-39.3c0-16.1-9.6-29.9-23.4-36ZM284.1,480.6c5.4-5.6,8.3-12.9,8.3-20.5s-.1-3.1-.3-4.6l-.3-1.6-23.4,7.5,14.5,20.3,1.2-1.1ZM272.7,463l16.8-5.4c.1.8.1,1.6.1,2.5,0,6.5-2.1,12.4-6.4,17.2l-10.3-14-.2-.3ZM289.2,446.5c-4.3-8.1-12.2-13.8-21.2-15.2l-1.7-.3v24.7l23.6-7.7-.8-1.5ZM269.1,451.8v-17.6c6.9,1.6,13,5.9,16.7,12.1l-16.7,5.5ZM263.2,489.3c4.5,0,9-1.1,13.2-3.1l1.5-.8-9-12.5-5.7-7.7-14.7,20.3,1.5.8c4.1,2.1,8.5,3.1,13.2,3.1ZM263.2,470l10.4,14.3c-6.8,3-14.4,2.9-20.8.1l10.4-14.4ZM263.2,464.1c2.2,0,4.1-1.9,4.1-4s-1.8-4.3-4.1-4.3-4.1,1.9-4.1,4.3,1.9,4,4.1,4ZM237.2,446.5l-.8,1.5,14.5,4.7,5.3,1.8,3.9,1.2v-24.6l-1.7.2c-8.8,1.2-16.8,6.9-21.3,15.2ZM257.4,434.3v17.6l-16.8-5.5c3.8-6.3,10-10.6,16.8-12.1ZM258.2,461.5l-23.5-7.6-.3,1.6c-.2,1.5-.4,3-.4,4.7,0,7.7,3,15,8.6,20.5l1.1,1.1,9-12.4,3.2-4.4,2.4-3.5ZM243.3,477.4c-4.3-4.8-6.6-10.9-6.6-17.2s.1-1.8.2-2.6l11.4,3.7,5.5,1.8-10.5,14.3ZM292.1,455.5l-.3-1.6-23.4,7.5,14.5,20.3,1.2-1.1c5.4-5.6,8.3-12.9,8.3-20.5,0-1.6-.1-3.1-.3-4.6ZM283.2,477.4l-10.3-14-.2-.3,16.8-5.4c.1.8.1,1.6.1,2.5,0,6.5-2.1,12.4-6.4,17.2ZM289.2,446.5c-4.3-8.1-12.2-13.8-21.2-15.2l-1.7-.3v24.7l23.6-7.7-.8-1.5ZM269.1,451.8v-17.6c6.9,1.6,13,5.9,16.7,12.1l-16.7,5.5ZM268.9,472.9l-5.7-7.7-14.7,20.3,1.5.8c4.1,2.1,8.5,3.1,13.2,3.1s9-1.1,13.2-3.1l1.5-.8-9-12.5ZM252.8,484.4l10.4-14.4,10.4,14.3c-6.8,3-14.4,2.9-20.8.1ZM263.2,455.9c-2.4,0-4.1,1.9-4.1,4.3s1.9,4,4.1,4,4.1-1.9,4.1-4-1.8-4.3-4.1-4.3ZM258.5,431.2c-8.8,1.2-16.8,6.9-21.3,15.2l-.8,1.5,14.5,4.7,5.3,1.8,3.9,1.2v-24.6l-1.7.2ZM257.4,451.8l-16.8-5.5c3.8-6.3,10-10.6,16.8-12.1v17.6ZM234.7,453.9l-.3,1.6c-.2,1.5-.4,3-.4,4.7,0,7.7,3,15,8.6,20.5l1.1,1.1,9-12.4,3.2-4.4,2.4-3.5-23.5-7.6ZM243.3,477.4c-4.3-4.8-6.6-10.9-6.6-17.2s.1-1.8.2-2.6l11.4,3.7,5.5,1.8-10.5,14.3ZM292.1,455.5l-.3-1.6-23.4,7.5,14.5,20.3,1.2-1.1c5.4-5.6,8.3-12.9,8.3-20.5,0-1.6-.1-3.1-.3-4.6ZM283.2,477.4l-10.3-14-.2-.3,16.8-5.4c.1.8.1,1.6.1,2.5,0,6.5-2.1,12.4-6.4,17.2ZM289.2,446.5c-4.3-8.1-12.2-13.8-21.2-15.2l-1.7-.3v24.7l23.6-7.7-.8-1.5ZM269.1,451.8v-17.6c6.9,1.6,13,5.9,16.7,12.1l-16.7,5.5ZM268.9,472.9l-5.7-7.7-14.7,20.3,1.5.8c4.1,2.1,8.5,3.1,13.2,3.1s9-1.1,13.2-3.1l1.5-.8-9-12.5ZM252.8,484.4l10.4-14.4,10.4,14.3c-6.8,3-14.4,2.9-20.8.1ZM263.2,455.9c-2.4,0-4.1,1.9-4.1,4.3s1.9,4,4.1,4,4.1-1.9,4.1-4-1.8-4.3-4.1-4.3ZM258.5,431.2c-8.8,1.2-16.8,6.9-21.3,15.2l-.8,1.5,14.5,4.7,5.3,1.8,3.9,1.2v-24.6l-1.7.2ZM257.4,451.8l-16.8-5.5c3.8-6.3,10-10.6,16.8-12.1v17.6ZM234.7,453.9l-.3,1.6c-.2,1.5-.4,3-.4,4.7,0,7.7,3,15,8.6,20.5l1.1,1.1,9-12.4,3.2-4.4,2.4-3.5-23.5-7.6ZM243.3,477.4c-4.3-4.8-6.6-10.9-6.6-17.2s.1-1.8.2-2.6l11.4,3.7,5.5,1.8-10.5,14.3ZM292.1,455.5l-.3-1.6-23.4,7.5,14.5,20.3,1.2-1.1c5.4-5.6,8.3-12.9,8.3-20.5,0-1.6-.1-3.1-.3-4.6ZM283.2,477.4l-10.3-14-.2-.3,16.8-5.4c.1.8.1,1.6.1,2.5,0,6.5-2.1,12.4-6.4,17.2ZM289.2,446.5c-4.3-8.1-12.2-13.8-21.2-15.2l-1.7-.3v24.7l23.6-7.7-.8-1.5ZM269.1,451.8v-17.6c6.9,1.6,13,5.9,16.7,12.1l-16.7,5.5ZM268.9,472.9l-5.7-7.7-14.7,20.3,1.5.8c4.1,2.1,8.5,3.1,13.2,3.1s9-1.1,13.2-3.1l1.5-.8-9-12.5ZM252.8,484.4l10.4-14.4,10.4,14.3c-6.8,3-14.4,2.9-20.8.1ZM263.2,455.9c-2.4,0-4.1,1.9-4.1,4.3s1.9,4,4.1,4,4.1-1.9,4.1-4-1.8-4.3-4.1-4.3ZM258.5,431.2c-8.8,1.2-16.8,6.9-21.3,15.2l-.8,1.5,14.5,4.7,5.3,1.8,3.9,1.2v-24.6l-1.7.2ZM257.4,451.8l-16.8-5.5c3.8-6.3,10-10.6,16.8-12.1v17.6ZM234.7,453.9l-.3,1.6c-.2,1.5-.4,3-.4,4.7,0,7.7,3,15,8.6,20.5l1.1,1.1,9-12.4,3.2-4.4,2.4-3.5-23.5-7.6ZM243.3,477.4c-4.3-4.8-6.6-10.9-6.6-17.2s.1-1.8.2-2.6l11.4,3.7,5.5,1.8-10.5,14.3ZM234.7,453.9l-.3,1.6c-.2,1.5-.4,3-.4,4.7,0,7.7,3,15,8.6,20.5l1.1,1.1,9-12.4,3.2-4.4,2.4-3.5-23.5-7.6ZM243.3,477.4c-4.3-4.8-6.6-10.9-6.6-17.2s.1-1.8.2-2.6l11.4,3.7,5.5,1.8-10.5,14.3ZM258.5,431.2c-8.8,1.2-16.8,6.9-21.3,15.2l-.8,1.5,14.5,4.7,5.3,1.8,3.9,1.2v-24.6l-1.7.2ZM257.4,451.8l-16.8-5.5c3.8-6.3,10-10.6,16.8-12.1v17.6ZM263.2,455.9c-2.4,0-4.1,1.9-4.1,4.3s1.9,4,4.1,4,4.1-1.9,4.1-4-1.8-4.3-4.1-4.3ZM268.9,472.9l-5.7-7.7-14.7,20.3,1.5.8c4.1,2.1,8.5,3.1,13.2,3.1s9-1.1,13.2-3.1l1.5-.8-9-12.5ZM252.8,484.4l10.4-14.4,10.4,14.3c-6.8,3-14.4,2.9-20.8.1ZM289.2,446.5c-4.3-8.1-12.2-13.8-21.2-15.2l-1.7-.3v24.7l23.6-7.7-.8-1.5ZM269.1,451.8v-17.6c6.9,1.6,13,5.9,16.7,12.1l-16.7,5.5ZM292.1,455.5l-.3-1.6-23.4,7.5,14.5,20.3,1.2-1.1c5.4-5.6,8.3-12.9,8.3-20.5,0-1.6-.1-3.1-.3-4.6ZM283.2,477.4l-10.3-14-.2-.3,16.8-5.4c.1.8.1,1.6.1,2.5,0,6.5-2.1,12.4-6.4,17.2ZM292.1,455.5l-.3-1.6-23.4,7.5,14.5,20.3,1.2-1.1c5.4-5.6,8.3-12.9,8.3-20.5,0-1.6-.1-3.1-.3-4.6ZM283.2,477.4l-10.3-14-.2-.3,16.8-5.4c.1.8.1,1.6.1,2.5,0,6.5-2.1,12.4-6.4,17.2ZM289.2,446.5c-4.3-8.1-12.2-13.8-21.2-15.2l-1.7-.3v24.7l23.6-7.7-.8-1.5ZM269.1,451.8v-17.6c6.9,1.6,13,5.9,16.7,12.1l-16.7,5.5ZM268.9,472.9l-5.7-7.7-14.7,20.3,1.5.8c4.1,2.1,8.5,3.1,13.2,3.1s9-1.1,13.2-3.1l1.5-.8-9-12.5ZM252.8,484.4l10.4-14.4,10.4,14.3c-6.8,3-14.4,2.9-20.8.1ZM263.2,455.9c-2.4,0-4.1,1.9-4.1,4.3s1.9,4,4.1,4,4.1-1.9,4.1-4-1.8-4.3-4.1-4.3ZM258.5,431.2c-8.8,1.2-16.8,6.9-21.3,15.2l-.8,1.5,14.5,4.7,5.3,1.8,3.9,1.2v-24.6l-1.7.2ZM257.4,451.8l-16.8-5.5c3.8-6.3,10-10.6,16.8-12.1v17.6ZM234.7,453.9l-.3,1.6c-.2,1.5-.4,3-.4,4.7,0,7.7,3,15,8.6,20.5l1.1,1.1,9-12.4,3.2-4.4,2.4-3.5-23.5-7.6ZM243.3,477.4c-4.3-4.8-6.6-10.9-6.6-17.2s.1-1.8.2-2.6l11.4,3.7,5.5,1.8-10.5,14.3ZM234.7,453.9l-.3,1.6c-.2,1.5-.4,3-.4,4.7,0,7.7,3,15,8.6,20.5l1.1,1.1,9-12.4,3.2-4.4,2.4-3.5-23.5-7.6ZM243.3,477.4c-4.3-4.8-6.6-10.9-6.6-17.2s.1-1.8.2-2.6l11.4,3.7,5.5,1.8-10.5,14.3ZM258.5,431.2c-8.8,1.2-16.8,6.9-21.3,15.2l-.8,1.5,14.5,4.7,5.3,1.8,3.9,1.2v-24.6l-1.7.2ZM257.4,451.8l-16.8-5.5c3.8-6.3,10-10.6,16.8-12.1v17.6ZM263.2,455.9c-2.4,0-4.1,1.9-4.1,4.3s1.9,4,4.1,4,4.1-1.9,4.1-4-1.8-4.3-4.1-4.3ZM268.9,472.9l-5.7-7.7-14.7,20.3,1.5.8c4.1,2.1,8.5,3.1,13.2,3.1s9-1.1,13.2-3.1l1.5-.8-9-12.5ZM252.8,484.4l10.4-14.4,10.4,14.3c-6.8,3-14.4,2.9-20.8.1ZM289.2,446.5c-4.3-8.1-12.2-13.8-21.2-15.2l-1.7-.3v24.7l23.6-7.7-.8-1.5ZM269.1,451.8v-17.6c6.9,1.6,13,5.9,16.7,12.1l-16.7,5.5ZM292.1,455.5l-.3-1.6-23.4,7.5,14.5,20.3,1.2-1.1c5.4-5.6,8.3-12.9,8.3-20.5,0-1.6-.1-3.1-.3-4.6ZM283.2,477.4l-10.3-14-.2-.3,16.8-5.4c.1.8.1,1.6.1,2.5,0,6.5-2.1,12.4-6.4,17.2ZM292.1,455.5l-.3-1.6-23.4,7.5,14.5,20.3,1.2-1.1c5.4-5.6,8.3-12.9,8.3-20.5,0-1.6-.1-3.1-.3-4.6ZM283.2,477.4l-10.3-14-.2-.3,16.8-5.4c.1.8.1,1.6.1,2.5,0,6.5-2.1,12.4-6.4,17.2ZM289.2,446.5c-4.3-8.1-12.2-13.8-21.2-15.2l-1.7-.3v24.7l23.6-7.7-.8-1.5ZM269.1,451.8v-17.6c6.9,1.6,13,5.9,16.7,12.1l-16.7,5.5ZM268.9,472.9l-5.7-7.7-14.7,20.3,1.5.8c4.1,2.1,8.5,3.1,13.2,3.1s9-1.1,13.2-3.1l1.5-.8-9-12.5ZM252.8,484.4l10.4-14.4,10.4,14.3c-6.8,3-14.4,2.9-20.8.1ZM263.2,455.9c-2.4,0-4.1,1.9-4.1,4.3s1.9,4,4.1,4,4.1-1.9,4.1-4-1.8-4.3-4.1-4.3ZM258.5,431.2c-8.8,1.2-16.8,6.9-21.3,15.2l-.8,1.5,14.5,4.7,5.3,1.8,3.9,1.2v-24.6l-1.7.2ZM257.4,451.8l-16.8-5.5c3.8-6.3,10-10.6,16.8-12.1v17.6ZM234.7,453.9l-.3,1.6c-.2,1.5-.4,3-.4,4.7,0,7.7,3,15,8.6,20.5l1.1,1.1,9-12.4,3.2-4.4,2.4-3.5-23.5-7.6ZM243.3,477.4c-4.3-4.8-6.6-10.9-6.6-17.2s.1-1.8.2-2.6l11.4,3.7,5.5,1.8-10.5,14.3ZM234.7,453.9l-.3,1.6c-.2,1.5-.4,3-.4,4.7,0,7.7,3,15,8.6,20.5l1.1,1.1,9-12.4,3.2-4.4,2.4-3.5-23.5-7.6ZM243.3,477.4c-4.3-4.8-6.6-10.9-6.6-17.2s.1-1.8.2-2.6l11.4,3.7,5.5,1.8-10.5,14.3ZM258.5,431.2c-8.8,1.2-16.8,6.9-21.3,15.2l-.8,1.5,14.5,4.7,5.3,1.8,3.9,1.2v-24.6l-1.7.2ZM257.4,451.8l-16.8-5.5c3.8-6.3,10-10.6,16.8-12.1v17.6ZM263.2,455.9c-2.4,0-4.1,1.9-4.1,4.3s1.9,4,4.1,4,4.1-1.9,4.1-4-1.8-4.3-4.1-4.3ZM268.9,472.9l-5.7-7.7-14.7,20.3,1.5.8c4.1,2.1,8.5,3.1,13.2,3.1s9-1.1,13.2-3.1l1.5-.8-9-12.5ZM252.8,484.4l10.4-14.4,10.4,14.3c-6.8,3-14.4,2.9-20.8.1ZM289.2,446.5c-4.3-8.1-12.2-13.8-21.2-15.2l-1.7-.3v24.7l23.6-7.7-.8-1.5ZM269.1,451.8v-17.6c6.9,1.6,13,5.9,16.7,12.1l-16.7,5.5ZM292.1,455.5l-.3-1.6-23.4,7.5,14.5,20.3,1.2-1.1c5.4-5.6,8.3-12.9,8.3-20.5,0-1.6-.1-3.1-.3-4.6ZM283.2,477.4l-10.3-14-.2-.3,16.8-5.4c.1.8.1,1.6.1,2.5,0,6.5-2.1,12.4-6.4,17.2ZM292.1,455.5l-.3-1.6-23.4,7.5,14.5,20.3,1.2-1.1c5.4-5.6,8.3-12.9,8.3-20.5,0-1.6-.1-3.1-.3-4.6ZM283.2,477.4l-10.3-14-.2-.3,16.8-5.4c.1.8.1,1.6.1,2.5,0,6.5-2.1,12.4-6.4,17.2ZM289.2,446.5c-4.3-8.1-12.2-13.8-21.2-15.2l-1.7-.3v24.7l23.6-7.7-.8-1.5ZM269.1,451.8v-17.6c6.9,1.6,13,5.9,16.7,12.1l-16.7,5.5ZM268.9,472.9l-5.7-7.7-14.7,20.3,1.5.8c4.1,2.1,8.5,3.1,13.2,3.1s9-1.1,13.2-3.1l1.5-.8-9-12.5ZM252.8,484.4l10.4-14.4,10.4,14.3c-6.8,3-14.4,2.9-20.8.1ZM263.2,455.9c-2.4,0-4.1,1.9-4.1,4.3s1.9,4,4.1,4,4.1-1.9,4.1-4-1.8-4.3-4.1-4.3ZM258.5,431.2c-8.8,1.2-16.8,6.9-21.3,15.2l-.8,1.5,14.5,4.7,5.3,1.8,3.9,1.2v-24.6l-1.7.2ZM257.4,451.8l-16.8-5.5c3.8-6.3,10-10.6,16.8-12.1v17.6ZM234.7,453.9l-.3,1.6c-.2,1.5-.4,3-.4,4.7,0,7.7,3,15,8.6,20.5l1.1,1.1,9-12.4,3.2-4.4,2.4-3.5-23.5-7.6ZM243.3,477.4c-4.3-4.8-6.6-10.9-6.6-17.2s.1-1.8.2-2.6l11.4,3.7,5.5,1.8-10.5,14.3ZM234.7,453.9l-.3,1.6c-.2,1.5-.4,3-.4,4.7,0,7.7,3,15,8.6,20.5l1.1,1.1,9-12.4,3.2-4.4,2.4-3.5-23.5-7.6ZM243.3,477.4c-4.3-4.8-6.6-10.9-6.6-17.2s.1-1.8.2-2.6l11.4,3.7,5.5,1.8-10.5,14.3ZM258.5,431.2c-8.8,1.2-16.8,6.9-21.3,15.2l-.8,1.5,14.5,4.7,5.3,1.8,3.9,1.2v-24.6l-1.7.2ZM257.4,451.8l-16.8-5.5c3.8-6.3,10-10.6,16.8-12.1v17.6ZM263.2,455.9c-2.4,0-4.1,1.9-4.1,4.3s1.9,4,4.1,4,4.1-1.9,4.1-4-1.8-4.3-4.1-4.3ZM268.9,472.9l-5.7-7.7-14.7,20.3,1.5.8c4.1,2.1,8.5,3.1,13.2,3.1s9-1.1,13.2-3.1l1.5-.8-9-12.5ZM252.8,484.4l10.4-14.4,10.4,14.3c-6.8,3-14.4,2.9-20.8.1ZM289.2,446.5c-4.3-8.1-12.2-13.8-21.2-15.2l-1.7-.3v24.7l23.6-7.7-.8-1.5ZM269.1,451.8v-17.6c6.9,1.6,13,5.9,16.7,12.1l-16.7,5.5ZM292.1,455.5l-.3-1.6-23.4,7.5,14.5,20.3,1.2-1.1c5.4-5.6,8.3-12.9,8.3-20.5,0-1.6-.1-3.1-.3-4.6ZM283.2,477.4l-10.3-14-.2-.3,16.8-5.4c.1.8.1,1.6.1,2.5,0,6.5-2.1,12.4-6.4,17.2ZM292.1,455.5l-.3-1.6-23.4,7.5,14.5,20.3,1.2-1.1c5.4-5.6,8.3-12.9,8.3-20.5,0-1.6-.1-3.1-.3-4.6ZM283.2,477.4l-10.3-14-.2-.3,16.8-5.4c.1.8.1,1.6.1,2.5,0,6.5-2.1,12.4-6.4,17.2ZM289.2,446.5c-4.3-8.1-12.2-13.8-21.2-15.2l-1.7-.3v24.7l23.6-7.7-.8-1.5ZM269.1,451.8v-17.6c6.9,1.6,13,5.9,16.7,12.1l-16.7,5.5ZM268.9,472.9l-5.7-7.7-14.7,20.3,1.5.8c4.1,2.1,8.5,3.1,13.2,3.1s9-1.1,13.2-3.1l1.5-.8-9-12.5ZM252.8,484.4l10.4-14.4,10.4,14.3c-6.8,3-14.4,2.9-20.8.1ZM263.2,455.9c-2.4,0-4.1,1.9-4.1,4.3s1.9,4,4.1,4,4.1-1.9,4.1-4-1.8-4.3-4.1-4.3ZM258.5,431.2c-8.8,1.2-16.8,6.9-21.3,15.2l-.8,1.5,14.5,4.7,5.3,1.8,3.9,1.2v-24.6l-1.7.2ZM257.4,451.8l-16.8-5.5c3.8-6.3,10-10.6,16.8-12.1v17.6ZM234.7,453.9l-.3,1.6c-.2,1.5-.4,3-.4,4.7,0,7.7,3,15,8.6,20.5l1.1,1.1,9-12.4,3.2-4.4,2.4-3.5-23.5-7.6ZM243.3,477.4c-4.3-4.8-6.6-10.9-6.6-17.2s.1-1.8.2-2.6l11.4,3.7,5.5,1.8-10.5,14.3ZM234.7,453.9l-.3,1.6c-.2,1.5-.4,3-.4,4.7,0,7.7,3,15,8.6,20.5l1.1,1.1,9-12.4,3.2-4.4,2.4-3.5-23.5-7.6ZM243.3,477.4c-4.3-4.8-6.6-10.9-6.6-17.2s.1-1.8.2-2.6l11.4,3.7,5.5,1.8-10.5,14.3ZM258.5,431.2c-8.8,1.2-16.8,6.9-21.3,15.2l-.8,1.5,14.5,4.7,5.3,1.8,3.9,1.2v-24.6l-1.7.2ZM257.4,451.8l-16.8-5.5c3.8-6.3,10-10.6,16.8-12.1v17.6ZM263.2,455.9c-2.4,0-4.1,1.9-4.1,4.3s1.9,4,4.1,4,4.1-1.9,4.1-4-1.8-4.3-4.1-4.3ZM268.9,472.9l-5.7-7.7-14.7,20.3,1.5.8c4.1,2.1,8.5,3.1,13.2,3.1s9-1.1,13.2-3.1l1.5-.8-9-12.5ZM252.8,484.4l10.4-14.4,10.4,14.3c-6.8,3-14.4,2.9-20.8.1ZM289.2,446.5c-4.3-8.1-12.2-13.8-21.2-15.2l-1.7-.3v24.7l23.6-7.7-.8-1.5ZM269.1,451.8v-17.6c6.9,1.6,13,5.9,16.7,12.1l-16.7,5.5ZM292.1,455.5l-.3-1.6-23.4,7.5,14.5,20.3,1.2-1.1c5.4-5.6,8.3-12.9,8.3-20.5,0-1.6-.1-3.1-.3-4.6ZM283.2,477.4l-10.3-14-.2-.3,16.8-5.4c.1.8.1,1.6.1,2.5,0,6.5-2.1,12.4-6.4,17.2ZM292.1,455.5l-.3-1.6-23.4,7.5,14.5,20.3,1.2-1.1c5.4-5.6,8.3-12.9,8.3-20.5,0-1.6-.1-3.1-.3-4.6ZM283.2,477.4l-10.3-14-.2-.3,16.8-5.4c.1.8.1,1.6.1,2.5,0,6.5-2.1,12.4-6.4,17.2ZM289.2,446.5c-4.3-8.1-12.2-13.8-21.2-15.2l-1.7-.3v24.7l23.6-7.7-.8-1.5ZM269.1,451.8v-17.6c6.9,1.6,13,5.9,16.7,12.1l-16.7,5.5ZM268.9,472.9l-5.7-7.7-14.7,20.3,1.5.8c4.1,2.1,8.5,3.1,13.2,3.1s9-1.1,13.2-3.1l1.5-.8-9-12.5ZM252.8,484.4l10.4-14.4,10.4,14.3c-6.8,3-14.4,2.9-20.8.1ZM263.2,455.9c-2.4,0-4.1,1.9-4.1,4.3s1.9,4,4.1,4,4.1-1.9,4.1-4-1.8-4.3-4.1-4.3ZM258.5,431.2c-8.8,1.2-16.8,6.9-21.3,15.2l-.8,1.5,14.5,4.7,5.3,1.8,3.9,1.2v-24.6l-1.7.2ZM257.4,451.8l-16.8-5.5c3.8-6.3,10-10.6,16.8-12.1v17.6ZM234.7,453.9l-.3,1.6c-.2,1.5-.4,3-.4,4.7,0,7.7,3,15,8.6,20.5l1.1,1.1,9-12.4,3.2-4.4,2.4-3.5-23.5-7.6ZM243.3,477.4c-4.3-4.8-6.6-10.9-6.6-17.2s.1-1.8.2-2.6l11.4,3.7,5.5,1.8-10.5,14.3ZM234.7,453.9l-.3,1.6c-.2,1.5-.4,3-.4,4.7,0,7.7,3,15,8.6,20.5l1.1,1.1,9-12.4,3.2-4.4,2.4-3.5-23.5-7.6ZM243.3,477.4c-4.3-4.8-6.6-10.9-6.6-17.2s.1-1.8.2-2.6l11.4,3.7,5.5,1.8-10.5,14.3ZM258.5,431.2c-8.8,1.2-16.8,6.9-21.3,15.2l-.8,1.5,14.5,4.7,5.3,1.8,3.9,1.2v-24.6l-1.7.2ZM257.4,451.8l-16.8-5.5c3.8-6.3,10-10.6,16.8-12.1v17.6ZM263.2,455.9c-2.4,0-4.1,1.9-4.1,4.3s1.9,4,4.1,4,4.1-1.9,4.1-4-1.8-4.3-4.1-4.3ZM268.9,472.9l-5.7-7.7-14.7,20.3,1.5.8c4.1,2.1,8.5,3.1,13.2,3.1s9-1.1,13.2-3.1l1.5-.8-9-12.5ZM252.8,484.4l10.4-14.4,10.4,14.3c-6.8,3-14.4,2.9-20.8.1ZM289.2,446.5c-4.3-8.1-12.2-13.8-21.2-15.2l-1.7-.3v24.7l23.6-7.7-.8-1.5ZM269.1,451.8v-17.6c6.9,1.6,13,5.9,16.7,12.1l-16.7,5.5ZM292.1,455.5l-.3-1.6-23.4,7.5,14.5,20.3,1.2-1.1c5.4-5.6,8.3-12.9,8.3-20.5,0-1.6-.1-3.1-.3-4.6ZM283.2,477.4l-10.3-14-.2-.3,16.8-5.4c.1.8.1,1.6.1,2.5,0,6.5-2.1,12.4-6.4,17.2ZM268.9,472.9l-5.7-7.7-14.7,20.3,1.5.8c4.1,2.1,8.5,3.1,13.2,3.1s9-1.1,13.2-3.1l1.5-.8-9-12.5ZM252.8,484.4l10.4-14.4,10.4,14.3c-6.8,3-14.4,2.9-20.8.1ZM292.1,455.5l-.3-1.6-23.4,7.5,14.5,20.3,1.2-1.1c5.4-5.6,8.3-12.9,8.3-20.5,0-1.6-.1-3.1-.3-4.6ZM283.2,477.4l-10.3-14-.2-.3,16.8-5.4c.1.8.1,1.6.1,2.5,0,6.5-2.1,12.4-6.4,17.2ZM234.7,453.9l-.3,1.6c-.2,1.5-.4,3-.4,4.7,0,7.7,3,15,8.6,20.5l1.1,1.1,9-12.4,3.2-4.4,2.4-3.5-23.5-7.6ZM243.3,477.4c-4.3-4.8-6.6-10.9-6.6-17.2s.1-1.8.2-2.6l11.4,3.7,5.5,1.8-10.5,14.3ZM263.2,455.9c-2.4,0-4.1,1.9-4.1,4.3s1.9,4,4.1,4,4.1-1.9,4.1-4-1.8-4.3-4.1-4.3ZM289.2,446.5c-4.3-8.1-12.2-13.8-21.2-15.2l-1.7-.3v24.7l23.6-7.7-.8-1.5ZM269.1,451.8v-17.6c6.9,1.6,13,5.9,16.7,12.1l-16.7,5.5ZM258.5,431.2c-8.8,1.2-16.8,6.9-21.3,15.2l-.8,1.5,14.5,4.7,5.3,1.8,3.9,1.2v-24.6l-1.7.2ZM257.4,451.8l-16.8-5.5c3.8-6.3,10-10.6,16.8-12.1v17.6Z"/>
  <path class="st0" d="M243.6,481.7l-1.2-1.2c-5.5-5.5-8.5-12.8-8.5-20.5s.1-3.2.4-4.7l.3-1.6,23.6,7.7-2.3,3.5-3.3,4.4-8.9,12.4ZM236.9,457.5c0,.8-.1,1.7-.1,2.6,0,6.4,2.3,12.5,6.6,17.3l10.5-14.4-5.4-1.7-11.5-3.8Z"/>
  <path class="st0" d="M260.2,455.6l-4-1.2-5.2-1.8-14.5-4.7.8-1.5c4.5-8.3,12.4-14,21.3-15.3l1.6-.2v24.6h0ZM240.6,446.3l16.8,5.5v-17.6c-6.8,1.5-12.9,5.9-16.8,12.1Z"/>
  <path class="st0" d="M263.2,489.3c-4.6,0-9.1-1.1-13.2-3.2l-1.4-.7,14.6-20.2,5.7,7.8,8.9,12.5-1.5.7c-4.2,2.1-8.7,3.2-13.2,3.2ZM252.8,484.4c6.4,2.8,14,2.9,20.8,0l-10.4-14.4-10.4,14.4Z"/>
  <path class="st0" d="M266.4,455.6v-24.7l1.6.3c9,1.4,16.9,7.2,21.2,15.3l.8,1.5-23.5,7.7ZM269.2,434.3v17.6l16.7-5.5c-3.7-6.1-9.8-10.5-16.7-12.1Z"/>
  <path class="st0" d="M282.9,481.7l-14.6-20.3,23.4-7.5.3,1.6c.3,1.5.4,3,.4,4.6,0,7.7-3,15-8.4,20.5l-1.1,1.2ZM272.8,463l.2.3,10.2,14c4.2-4.9,6.5-10.8,6.5-17.3s0-1.7-.1-2.5l-16.8,5.4Z"/>
  <path class="st0" d="M243.6,481.7l-1.2-1.2c-5.5-5.5-8.5-12.8-8.5-20.5s.1-3.2.4-4.7l.3-1.6,23.6,7.7-2.3,3.5-3.3,4.4-8.9,12.4ZM236.9,457.5c0,.8-.1,1.7-.1,2.6,0,6.4,2.3,12.5,6.6,17.3l10.5-14.4-5.4-1.7-11.5-3.8Z"/>
  <path class="st0" d="M260.2,455.6l-4-1.2-5.2-1.8-14.5-4.7.8-1.5c4.5-8.3,12.4-14,21.3-15.3l1.6-.2v24.6h0ZM240.6,446.3l16.8,5.5v-17.6c-6.8,1.5-12.9,5.9-16.8,12.1Z"/>
  <path class="st0" d="M263.2,489.3c-4.6,0-9.1-1.1-13.2-3.2l-1.4-.7,14.6-20.2,5.7,7.8,8.9,12.5-1.5.7c-4.2,2.1-8.7,3.2-13.2,3.2ZM252.8,484.4c6.4,2.8,14,2.9,20.8,0l-10.4-14.4-10.4,14.4Z"/>
  <path class="st0" d="M266.4,455.6v-24.7l1.6.3c9,1.4,16.9,7.2,21.2,15.3l.8,1.5-23.5,7.7ZM269.2,434.3v17.6l16.7-5.5c-3.7-6.1-9.8-10.5-16.7-12.1Z"/>
  <path class="st0" d="M282.9,481.7l-14.6-20.3,23.4-7.5.3,1.6c.3,1.5.4,3,.4,4.6,0,7.7-3,15-8.4,20.5l-1.1,1.2ZM272.8,463l.2.3,10.2,14c4.2-4.9,6.5-10.8,6.5-17.3s0-1.7-.1-2.5l-16.8,5.4Z"/>
  <path class="st0" d="M589.3,499.4c-21.7,0-39.3-17.6-39.3-39.3s17.6-39.4,39.3-39.4,39.4,17.7,39.4,39.4-17.7,39.3-39.4,39.3ZM589.3,423.5c-20.1,0-36.5,16.4-36.5,36.6s16.4,36.5,36.5,36.5,36.6-16.4,36.6-36.5-16.4-36.6-36.6-36.6ZM589.3,489.3c-4.7,0-9.1-1.1-13.2-3.2l-1.4-.7,14.6-20.2,5.7,7.8,8.9,12.5-1.5.7c-4.2,2.1-8.7,3.2-13.2,3.2ZM578.9,484.4c6.4,2.8,14,2.9,20.8,0l-10.4-14.4-10.4,14.4ZM609.1,481.7l-14.6-20.3,23.4-7.5.3,1.6c.3,1.5.4,3,.4,4.6,0,7.7-3,15-8.4,20.5l-1.1,1.2ZM598.9,463l.2.3,10.2,14c4.2-4.9,6.5-10.8,6.5-17.3s0-1.7-.1-2.5l-16.8,5.4ZM569.8,481.7l-1.2-1.2c-5.5-5.5-8.5-12.8-8.5-20.5s.1-3.2.4-4.7l.3-1.6,23.6,7.7-2.3,3.5-3.3,4.4-8.9,12.4ZM563,457.5c0,.8-.1,1.7-.1,2.6,0,6.4,2.3,12.5,6.6,17.3l10.5-14.4-5.4-1.7-11.5-3.8ZM589.3,464.1c-2.3,0-4.2-1.9-4.2-4.1s1.9-4.2,4.2-4.2,4.2,1.9,4.2,4.2-1.9,4.1-4.2,4.1ZM592.5,455.6v-24.7l1.6.3c9,1.4,16.9,7.2,21.2,15.3l.8,1.5-23.5,7.7ZM595.3,434.3v17.6l16.7-5.5c-3.7-6.1-9.8-10.5-16.7-12.1ZM586.3,455.6l-4-1.2-5.2-1.8-14.5-4.7.8-1.5c4.5-8.3,12.4-14,21.3-15.3l1.6-.2v24.6h0ZM566.7,446.3l16.8,5.5v-17.6c-6.8,1.5-12.9,5.9-16.8,12.1Z"/>
  <path class="st0" d="M569.8,481.7l-1.2-1.2c-5.5-5.5-8.5-12.8-8.5-20.5s.1-3.2.4-4.7l.3-1.6,23.6,7.7-2.3,3.5-3.3,4.4-8.9,12.4ZM563,457.5c0,.8-.1,1.7-.1,2.6,0,6.4,2.3,12.5,6.6,17.3l10.5-14.4-5.4-1.7-11.5-3.8Z"/>
  <path class="st0" d="M586.3,455.6l-4-1.2-5.2-1.8-14.5-4.7.8-1.5c4.5-8.3,12.4-14,21.3-15.3l1.6-.2v24.6h0ZM566.7,446.3l16.8,5.5v-17.6c-6.8,1.5-12.9,5.9-16.8,12.1Z"/>
  <path class="st0" d="M589.3,489.3c-4.7,0-9.1-1.1-13.2-3.2l-1.4-.7,14.6-20.2,5.7,7.8,8.9,12.5-1.5.7c-4.2,2.1-8.7,3.2-13.2,3.2ZM578.9,484.4c6.4,2.8,14,2.9,20.8,0l-10.4-14.4-10.4,14.4Z"/>
  <path class="st0" d="M592.5,455.6v-24.7l1.6.3c9,1.4,16.9,7.2,21.2,15.3l.8,1.5-23.5,7.7ZM595.3,434.3v17.6l16.7-5.5c-3.7-6.1-9.8-10.5-16.7-12.1Z"/>
  <path class="st0" d="M609.1,481.7l-14.6-20.3,23.4-7.5.3,1.6c.3,1.5.4,3,.4,4.6,0,7.7-3,15-8.4,20.5l-1.1,1.2ZM598.9,463l.2.3,10.2,14c4.2-4.9,6.5-10.8,6.5-17.3s0-1.7-.1-2.5l-16.8,5.4Z"/>
  <path class="st0" d="M569.8,481.7l-1.2-1.2c-5.5-5.5-8.5-12.8-8.5-20.5s.1-3.2.4-4.7l.3-1.6,23.6,7.7-2.3,3.5-3.3,4.4-8.9,12.4ZM563,457.5c0,.8-.1,1.7-.1,2.6,0,6.4,2.3,12.5,6.6,17.3l10.5-14.4-5.4-1.7-11.5-3.8Z"/>
  <path class="st0" d="M586.3,455.6l-4-1.2-5.2-1.8-14.5-4.7.8-1.5c4.5-8.3,12.4-14,21.3-15.3l1.6-.2v24.6h0ZM566.7,446.3l16.8,5.5v-17.6c-6.8,1.5-12.9,5.9-16.8,12.1Z"/>
  <path class="st0" d="M589.3,489.3c-4.7,0-9.1-1.1-13.2-3.2l-1.4-.7,14.6-20.2,5.7,7.8,8.9,12.5-1.5.7c-4.2,2.1-8.7,3.2-13.2,3.2ZM578.9,484.4c6.4,2.8,14,2.9,20.8,0l-10.4-14.4-10.4,14.4Z"/>
  <path class="st0" d="M592.5,455.6v-24.7l1.6.3c9,1.4,16.9,7.2,21.2,15.3l.8,1.5-23.5,7.7ZM595.3,434.3v17.6l16.7-5.5c-3.7-6.1-9.8-10.5-16.7-12.1Z"/>
  <path class="st0" d="M609.1,481.7l-14.6-20.3,23.4-7.5.3,1.6c.3,1.5.4,3,.4,4.6,0,7.7-3,15-8.4,20.5l-1.1,1.2ZM598.9,463l.2.3,10.2,14c4.2-4.9,6.5-10.8,6.5-17.3s0-1.7-.1-2.5l-16.8,5.4Z"/>
  <path class="st0" d="M131.8,235.6v107.8h111.4l24.5,83.3,7.9-83.3h36.7v-107.8h-180.5ZM146.6,273.7h99.8v11.2h-99.8v-11.2ZM257.5,324h-110.9v-11.2h110.9v11.2ZM267.4,304.4h-120.8v-11.2h120.8v11.2ZM281.7,265.3h-135.1v-11.2h135.1v11.2Z"/>
  <rect class="st0" x="521.5" y="255.6" width="29.2" height="50.2"/>
  <rect class="st0" x="565.3" y="249.2" width="29.2" height="56.7"/>
  <rect class="st0" x="609.2" y="263.8" width="29.2" height="42"/>
  <rect class="st0" x="653.1" y="234.6" width="29.2" height="71.3"/>
  <path class="st0" d="M623.8,254.8c-.8,0-1.6-.2-2.4-.5l-42.1-19.6-42,10.1c-1,.2-2,.2-3-.1l-14.6-4.7c-2.9-.9-4.6-4.1-3.6-7,1-2.9,4.1-4.6,7-3.6l13.1,4.2,42.3-10.1c1.2-.3,2.5-.2,3.7.4l40.6,18.9,41.1-34.2c1-.8,2.3-1.3,3.6-1.3h14.6c3.1,0,5.6,2.5,5.6,5.6s-2.5,5.6-5.6,5.6h-12.6l-42.3,35.2c-1,.9-2.3,1.3-3.6,1.3Z"/>
</svg>