<?xml version="1.0" encoding="UTF-8"?>
<svg id="Layer_1" xmlns="http://www.w3.org/2000/svg" version="1.1" viewBox="0 0 800 800">
  <!-- Generator: Adobe Illustrator 29.5.0, SVG Export Plug-In . SVG Version: 2.1.0 Build 137)  -->
  <defs>
    <style>
      .st0 {
        fill: #a36627;
      }
    </style>
  </defs>
  <path class="st0" d="M274.8,347.4c0,3.6-2.9,6.5-6.5,6.5s-6.5-2.9-6.5-6.5,3-6.6,6.5-6.6c3.6,0,6.5,3,6.5,6.6Z"/>
  <path class="st0" d="M493.1,412.7c-10.5,0-19,8.5-19,19s8.5,19,19,19,19-8.5,19-19-8.5-19-19-19ZM493.1,412.7c-10.5,0-19,8.5-19,19s8.5,19,19,19,19-8.5,19-19-8.5-19-19-19ZM442,528.3c-34.6-18.4-58.2-54.8-58.2-96.6s16.5-66.2,42.2-86.1l-85.9-18.9c2,6.6,3,13.5,3,20.7,0,41.2-33.5,74.8-74.8,74.8s-8.2-.4-12.1-1l24.3,81c10.7-8.2,24.1-13.2,38.7-13.2,35,0,63.3,28.5,63.3,63.4h0c0,.1,59.4-24.1,59.4-24.1ZM319.3,549.1c-1.9,0-3.3,1.4-3.3,3.2s1.5,3.3,3.3,3.3,3.1-1.5,3.1-3.3-1.4-3.2-3.1-3.2ZM493.1,412.7c-10.5,0-19,8.5-19,19s8.5,19,19,19,19-8.5,19-19-8.5-19-19-19ZM493.1,412.7c-10.5,0-19,8.5-19,19s8.5,19,19,19,19-8.5,19-19-8.5-19-19-19ZM442,528.3c-34.6-18.4-58.2-54.8-58.2-96.6s16.5-66.2,42.2-86.1l-85.9-18.9c2,6.6,3,13.5,3,20.7,0,41.2-33.5,74.8-74.8,74.8s-8.2-.4-12.1-1l24.3,81c10.7-8.2,24.1-13.2,38.7-13.2,35,0,63.3,28.5,63.3,63.4h0c0,.1,59.4-24.1,59.4-24.1ZM319.3,549.1c-1.9,0-3.3,1.4-3.3,3.2s1.5,3.3,3.3,3.3,3.1-1.5,3.1-3.3-1.4-3.2-3.1-3.2ZM319.3,549.1c-1.9,0-3.3,1.4-3.3,3.2s1.5,3.3,3.3,3.3,3.1-1.5,3.1-3.3-1.4-3.2-3.1-3.2ZM442,528.3c-34.6-18.4-58.2-54.8-58.2-96.6s16.5-66.2,42.2-86.1l-85.9-18.9c2,6.6,3,13.5,3,20.7,0,41.2-33.5,74.8-74.8,74.8s-8.2-.4-12.1-1l24.3,81c10.7-8.2,24.1-13.2,38.7-13.2,35,0,63.3,28.5,63.3,63.4h0c0,.1,59.4-24.1,59.4-24.1ZM493.1,412.7c-10.5,0-19,8.5-19,19s8.5,19,19,19,19-8.5,19-19-8.5-19-19-19ZM493.1,412.7c-10.5,0-19,8.5-19,19s8.5,19,19,19,19-8.5,19-19-8.5-19-19-19ZM442,528.3c-34.6-18.4-58.2-54.8-58.2-96.6s16.5-66.2,42.2-86.1l-85.9-18.9c2,6.6,3,13.5,3,20.7,0,41.2-33.5,74.8-74.8,74.8s-8.2-.4-12.1-1l24.3,81c10.7-8.2,24.1-13.2,38.7-13.2,35,0,63.3,28.5,63.3,63.4h0c0,.1,59.4-24.1,59.4-24.1ZM319.3,549.1c-1.9,0-3.3,1.4-3.3,3.2s1.5,3.3,3.3,3.3,3.1-1.5,3.1-3.3-1.4-3.2-3.1-3.2ZM319.3,549.1c-1.9,0-3.3,1.4-3.3,3.2s1.5,3.3,3.3,3.3,3.1-1.5,3.1-3.3-1.4-3.2-3.1-3.2ZM442,528.3c-34.6-18.4-58.2-54.8-58.2-96.6s16.5-66.2,42.2-86.1l-85.9-18.9c2,6.6,3,13.5,3,20.7,0,41.2-33.5,74.8-74.8,74.8s-8.2-.4-12.1-1l24.3,81c10.7-8.2,24.1-13.2,38.7-13.2,35,0,63.3,28.5,63.3,63.4h0c0,.1,59.4-24.1,59.4-24.1ZM493.1,412.7c-10.5,0-19,8.5-19,19s8.5,19,19,19,19-8.5,19-19-8.5-19-19-19ZM482,220.8l-10.4-7,1-1.4h-145.2l1,1.4-13.1,9-81.9,56.7.9,1.2c10.2-5.2,21.7-8.2,34.1-8.2s22.5,2.6,32.1,7.2l196.2,42.8c58.7,1.8,105.8,49.9,105.8,109.1s-28.7,85.8-69.3,101.9l-2.4.9-46.4,17.4-127.7,51.8c-10.4,7.7-23.3,12.2-37.2,12.2-35,0-63.4-28.5-63.4-63.4s0-1.4.1-2.1l-47.6-158.2c-9.5-12.5-15-28-15-44.7s8.5-39.7,22.3-53.2l-1.1-1.6-84.9,58.8,55.8,142.7,90,230.2h248.8l90-230.2,55.8-142.6h0c0-.1-188.3-130.7-188.3-130.7ZM512.1,431.7c0-10.5-8.5-19-19-19s-19,8.5-19,19,8.5,19,19,19c10.5,0,19-8.5,19-19ZM268.3,422.2c-4.1,0-8.2-.4-12.1-1l24.3,81c10.7-8.2,24.1-13.2,38.7-13.2,35,0,63.3,28.5,63.3,63.4h0c0,.1,59.4-24.1,59.4-24.1-34.6-18.4-58.2-54.8-58.2-96.6s16.5-66.2,42.2-86.1l-85.9-18.9c2,6.6,3,13.5,3,20.7,0,41.2-33.5,74.8-74.8,74.8ZM316,552.4c0,1.8,1.5,3.3,3.3,3.3s3.1-1.5,3.1-3.3-1.4-3.2-3.1-3.2-3.3,1.4-3.3,3.2ZM493.1,412.7c-10.5,0-19,8.5-19,19s8.5,19,19,19,19-8.5,19-19-8.5-19-19-19ZM442,528.3c-34.6-18.4-58.2-54.8-58.2-96.6s16.5-66.2,42.2-86.1l-85.9-18.9c2,6.6,3,13.5,3,20.7,0,41.2-33.5,74.8-74.8,74.8s-8.2-.4-12.1-1l24.3,81c10.7-8.2,24.1-13.2,38.7-13.2,35,0,63.3,28.5,63.3,63.4h0c0,.1,59.4-24.1,59.4-24.1ZM319.3,549.1c-1.9,0-3.3,1.4-3.3,3.2s1.5,3.3,3.3,3.3,3.1-1.5,3.1-3.3-1.4-3.2-3.1-3.2ZM319.3,549.1c-1.9,0-3.3,1.4-3.3,3.2s1.5,3.3,3.3,3.3,3.1-1.5,3.1-3.3-1.4-3.2-3.1-3.2ZM442,528.3c-34.6-18.4-58.2-54.8-58.2-96.6s16.5-66.2,42.2-86.1l-85.9-18.9c2,6.6,3,13.5,3,20.7,0,41.2-33.5,74.8-74.8,74.8s-8.2-.4-12.1-1l24.3,81c10.7-8.2,24.1-13.2,38.7-13.2,35,0,63.3,28.5,63.3,63.4h0c0,.1,59.4-24.1,59.4-24.1ZM493.1,412.7c-10.5,0-19,8.5-19,19s8.5,19,19,19,19-8.5,19-19-8.5-19-19-19ZM493.1,412.7c-10.5,0-19,8.5-19,19s8.5,19,19,19,19-8.5,19-19-8.5-19-19-19ZM442,528.3c-34.6-18.4-58.2-54.8-58.2-96.6s16.5-66.2,42.2-86.1l-85.9-18.9c2,6.6,3,13.5,3,20.7,0,41.2-33.5,74.8-74.8,74.8s-8.2-.4-12.1-1l24.3,81c10.7-8.2,24.1-13.2,38.7-13.2,35,0,63.3,28.5,63.3,63.4h0c0,.1,59.4-24.1,59.4-24.1ZM319.3,549.1c-1.9,0-3.3,1.4-3.3,3.2s1.5,3.3,3.3,3.3,3.1-1.5,3.1-3.3-1.4-3.2-3.1-3.2ZM442,528.3c-34.6-18.4-58.2-54.8-58.2-96.6s16.5-66.2,42.2-86.1l-85.9-18.9c2,6.6,3,13.5,3,20.7,0,41.2-33.5,74.8-74.8,74.8s-8.2-.4-12.1-1l24.3,81c10.7-8.2,24.1-13.2,38.7-13.2,35,0,63.3,28.5,63.3,63.4h0c0,.1,59.4-24.1,59.4-24.1ZM493.1,412.7c-10.5,0-19,8.5-19,19s8.5,19,19,19,19-8.5,19-19-8.5-19-19-19ZM493.1,412.7c-10.5,0-19,8.5-19,19s8.5,19,19,19,19-8.5,19-19-8.5-19-19-19ZM442,528.3c-34.6-18.4-58.2-54.8-58.2-96.6s16.5-66.2,42.2-86.1l-85.9-18.9c2,6.6,3,13.5,3,20.7,0,41.2-33.5,74.8-74.8,74.8s-8.2-.4-12.1-1l24.3,81c10.7-8.2,24.1-13.2,38.7-13.2,35,0,63.3,28.5,63.3,63.4h0c0,.1,59.4-24.1,59.4-24.1ZM493.1,412.7c-10.5,0-19,8.5-19,19s8.5,19,19,19,19-8.5,19-19-8.5-19-19-19ZM493.1,412.7c-10.5,0-19,8.5-19,19s8.5,19,19,19,19-8.5,19-19-8.5-19-19-19ZM319.3,549.1c-1.9,0-3.3,1.4-3.3,3.2s1.5,3.3,3.3,3.3,3.1-1.5,3.1-3.3-1.4-3.2-3.1-3.2ZM442,528.3c-34.6-18.4-58.2-54.8-58.2-96.6s16.5-66.2,42.2-86.1l-85.9-18.9c2,6.6,3,13.5,3,20.7,0,41.2-33.5,74.8-74.8,74.8s-8.2-.4-12.1-1l24.3,81c10.7-8.2,24.1-13.2,38.7-13.2,35,0,63.3,28.5,63.3,63.4h0c0,.1,59.4-24.1,59.4-24.1ZM493.1,412.7c-10.5,0-19,8.5-19,19s8.5,19,19,19,19-8.5,19-19-8.5-19-19-19Z"/>
  <path class="st0" d="M479.5,540.2l-104.5,42.4c2.6-4.9,4.6-10.1,5.9-15.7h0c0-.1,77.4-31.6,77.4-31.6,6.7,2.4,13.8,4,21.2,4.9Z"/>
  <path class="st0" d="M460.4,327.4c-6.9,2.1-13.4,5-19.6,8.5h-.1l-106-23.2c-2.9-5.5-6.4-10.5-10.4-15l136.1,29.7Z"/>
  <path class="st0" d="M270.5,511.9c-3.5,4.2-6.5,9-8.7,14l-35.1-116.5c4.7,3.2,9.9,6,15.3,7.9l28.5,94.6Z"/>
  <path class="st0" d="M493.1,334.9c-53.4,0-96.8,43.3-96.8,96.8s43.3,96.9,96.8,96.9,96.8-43.4,96.8-96.9-43.3-96.8-96.8-96.8ZM493.1,463.1c-17.4,0-31.5-14.1-31.5-31.5s14.1-31.5,31.5-31.5,31.5,14.1,31.5,31.5-14.1,31.5-31.5,31.5Z"/>
  <path class="st0" d="M268.4,285c-34.5,0-62.4,28-62.4,62.4s28,62.3,62.4,62.3,62.3-27.8,62.3-62.3c0-34.5-27.8-62.4-62.3-62.4ZM268.4,366.4c-10.5,0-19-8.5-19-19s8.5-19.1,19-19.1,19,8.6,19,19.1-8.5,19-19,19Z"/>
  <path class="st0" d="M319.3,501.4c-28.2,0-50.9,22.8-50.9,50.9s22.7,50.9,50.9,50.9,50.8-22.8,50.8-50.9-22.7-50.9-50.8-50.9ZM319.3,568.1c-8.7,0-15.7-7.1-15.7-15.7s7-15.7,15.7-15.7,15.6,7,15.6,15.7-7,15.7-15.6,15.7Z"/>
  <path class="st0" d="M238.8,75.7v89.5h322.5v-89.5H238.8ZM255.7,157.8h-9.6v-73.8h9.6v73.8ZM273.3,157.8h-9.7v-73.8h9.7v73.8ZM290.8,157.8h-9.6v-73.8h9.6v73.8ZM308.4,157.8h-9.6v-73.8h9.6v73.8ZM326,157.8h-9.6v-73.8h9.6v73.8ZM343.5,157.8h-9.6v-73.8h9.6v73.8ZM361.1,157.8h-9.6v-73.8h9.6v73.8ZM378.7,157.8h-9.6v-73.8h9.6v73.8ZM396.3,157.8h-9.7v-73.8h9.7v73.8ZM413.8,157.8h-9.6v-73.8h9.6v73.8ZM431.4,157.8h-9.6v-73.8h9.6v73.8ZM449,157.8h-9.6v-73.8h9.6v73.8ZM466.6,157.8h-9.7v-73.8h9.7v73.8ZM484.1,157.8h-9.6v-73.8h9.6v73.8ZM501.7,157.8h-9.6v-73.8h9.6v73.8ZM519.3,157.8h-9.6v-73.8h9.6v73.8ZM536.8,157.8h-9.6v-73.8h9.6v73.8ZM554.4,157.8h-9.6v-73.8h9.6v73.8Z"/>
  <rect class="st0" x="317.1" y="175.1" width="165.7" height="23.9"/>
  <path class="st0" d="M311,210.5l-2.7,1.9-183.2,127.1-75.2,52.2-9.2,6.4-31.8-46.2c-15.7-22.8-10-53.9,12.7-69.5l188.6-130c5-3.5,10.5-5.9,16-7.2v32.6h62.2l22.6,32.8Z"/>
  <path class="st0" d="M172.2,494.1h-54.3c-14.7,0-20.2-16.4-20.2-16.4l-41.7-75.2,63.2-43.8,53.1,135.3Z"/>
  <path class="st0" d="M791.1,351.9l-31.9,46.2-9.2-6.4-75.2-52.2-183.2-127.1-2.7-1.9,22.6-32.8h62.2v-32.6c5.5,1.4,11,3.8,16,7.2l188.6,130c22.7,15.6,28.5,46.7,12.7,69.6Z"/>
  <path class="st0" d="M743.9,402.7l-41.6,75s-5.5,16.4-20.2,16.4h-54.3l52.9-135.2,63.2,43.8Z"/>
</svg>