<?xml version="1.0" encoding="UTF-8"?>
<svg id="Capa_1" xmlns="http://www.w3.org/2000/svg" version="1.1" viewBox="0 0 800 800">
  <!-- Generator: Adobe Illustrator 29.5.0, SVG Export Plug-In . SVG Version: 2.1.0 Build 137)  -->
  <defs>
    <style>
      .st0 {
        fill: #bf8e50;
      }
    </style>
  </defs>
  <g>
    <path class="st0" d="M307.5,427.8c-.9,0-1.7.4-2.1,1.1,0,.1-11.5,16.6-11.6,16.7l-.4.5h2.6c.2,0,.5-.1.6-.3,0-.1,7.4-10.4,10.1-14.3l.9-1.3,9.7,15.3c.2.4.7.6,1.1.6h2.4l-11.7-18.3h-1.7Z"/>
    <path class="st0" d="M359.7,428.4v8.8c0,2.6-1.8,5-4.8,6.2-.6.2-1,.7-1,1.3v1.4s.4-.1.4-.1c4.8-1.2,8-4.8,8-8.9v-9.3h-2c-.4,0-.7.3-.7.6Z"/>
    <path class="st0" d="M347,443.4c-2.9-1.2-4.8-3.6-4.8-6.2v-8.8c0-.3-.3-.6-.7-.6h-2v.3c0,5.5,0,8.4,0,8.8h0s0,0,0,0h0s0,0,0,0c0,0,0,.1,0,.2,0,4,3.2,7.6,8,8.7h.4c0,.1,0-1.3,0-1.3,0-.6-.4-1.1-1-1.3Z"/>
    <path class="st0" d="M391.4,433.2h-1.4v11.7c0,.6.6,1.2,1.4,1.2h1.4v-11.7c0-.6-.6-1.2-1.4-1.2Z"/>
    <path class="st0" d="M400.2,427.8h-19.1v1.1c0,.6.6,1.2,1.4,1.2h19.1v-1.1c0-.3-.1-.5-.3-.8-.3-.3-.6-.4-1.1-.4Z"/>
    <path class="st0" d="M431.2,427.8c-6.3,0-11.4,4.1-11.4,9.2s5.1,9.2,11.4,9.2,11.4-4.1,11.4-9.2-5.1-9.2-11.4-9.2ZM440,437c0,3.8-3.9,6.9-8.7,6.9s-8.7-3.1-8.7-6.9,3.9-6.9,8.7-6.9,8.7,3.1,8.7,6.9Z"/>
    <path class="st0" d="M488.7,428.4l-11.2,15.7-11.2-15.7c-.3-.3-.8-.6-1.3-.6h-1.5v18.2h1c.9,0,1.7-.5,1.7-1.2v-12.4l9.4,12.9c.3.5,1,.8,1.8.8h.3c.8,0,1.4-.3,1.8-.8l9.4-12.9v12.4c0,.6.8,1.2,1.7,1.2h1v-18.2s-1.5,0-1.5,0c-.6,0-1.1.2-1.3.6Z"/>
    <path class="st0" d="M523.6,427.8c-6.3,0-11.4,4.1-11.4,9.2s5.1,9.2,11.4,9.2,11.4-4.1,11.4-9.2-5.1-9.2-11.4-9.2ZM532.3,437c0,3.8-3.9,6.9-8.7,6.9s-8.7-3.1-8.7-6.9,3.9-6.9,8.7-6.9,8.7,3.1,8.7,6.9Z"/>
    <path class="st0" d="M572.3,427.8h-19.1v1.1c0,.6.6,1.2,1.4,1.2h19.1v-1.1c0-.3-.1-.5-.3-.8-.3-.3-.6-.4-1.1-.4Z"/>
    <path class="st0" d="M563.4,433.2h-1.4v11.7c0,.6.6,1.2,1.4,1.2h1.4v-11.7c0-.6-.6-1.2-1.4-1.2Z"/>
    <path class="st0" d="M611.1,443.6c-1-1-2.3-2.3-5.6-5.5,0,0,0,0,0,0,1.9,0,3.8-.6,5.1-1.8.9-.9,1.5-2.1,1.5-3.3,0-1.2-.5-2.3-1.5-3.3-1.3-1.2-3.1-1.9-5.1-1.8h-15.2v.6c0,.9.9,1.6,1.9,1.6,9.3,0,12.2,0,13,0,.1,0,.3,0,.4,0h0c2.1,0,3.7,1.3,3.7,2.8,0,1.6-1.7,2.8-3.7,2.8h0c0,0-.2,0-.4,0-.5,0-1.8,0-4.9,0h-.8s.6.6.6.6c6.8,6.7,8.8,8.7,9.4,9.2h0s.5.5.5.5h0s0,0,0,0c.3.1.6.2.9.2h2.6l-.6-.6c-.9-.9-1.4-1.4-2-2Z"/>
    <path class="st0" d="M636.6,427.8h-1.4v17.1c0,.6.6,1.2,1.4,1.2h1.4v-17.1c0-.6-.6-1.2-1.4-1.2Z"/>
    <path class="st0" d="M679.2,427.8h-18.7v.9c0,.6.6,1.2,1.4,1.2h18.7v-1.1c0-.6-.5-1-1.4-1Z"/>
    <path class="st0" d="M679.2,444h-15.4c3.2-2.7,9.1-7.4,12.1-9.8l.7-.6h-1.9c-.9,0-1.8.3-2.4.8,0,0-.6.4-10.7,8.5-.7.6-1.1,1.3-1.1,2.2v1h20.1v-1.1c0-.7-.7-1.1-1.4-1.1Z"/>
  </g>
  <g>
    <path class="st0" d="M205.6,371.6s-.7,0-12.5,0h-19.2v1c0,1.7,1.7,3,3.7,3,19.6,0,25.6,0,27.5,0,.4,0,.6,0,.8,0h0c4.6,0,8.3,2.9,8.3,6.5s-3.7,6.5-8.1,6.5h-.2q-.8,0-18.4,0h-13.5s0,21,0,21h2.5c1.4,0,2.6-.9,2.6-2.1v-14.9h27c7.2,0,13-4.7,13-10.5s-1.1-4.8-3-6.7c-2.6-2.5-6.4-3.9-10.5-3.8Z"/>
    <path class="st0" d="M268.9,371.6h-2.5v35.9c0,1.2,1.1,2.1,2.6,2.1h2.5v-35.9c0-1.2-1.1-2.1-2.6-2.1Z"/>
    <path class="st0" d="M343.8,371.5c-13,0-23.7,8.5-23.7,19s10.6,19,23.7,19,23.7-8.5,23.7-19-10.6-19-23.7-19ZM362.6,390.5c0,8.3-8.4,15-18.8,15s-18.8-6.7-18.8-15,8.4-15,18.8-15,18.8,6.7,18.8,15Z"/>
    <path class="st0" d="M447,373.7v31.3l-30.6-32.9c-.3-.3-.7-.5-1.1-.5h-5.8v21h2.5c1.4,0,2.6-.9,2.6-2.1v-14.3l30.5,32.9c.3.3.7.5,1.1.5h5.8v-38h-2.5c-1.4,0-2.6.9-2.6,2.1Z"/>
    <path class="st0" d="M625.6,404.7c-2.1-2.1-4.9-5-12.4-12.3.9,0,1,0,1,0,4,0,7.8-1.3,10.4-3.8,1.9-1.9,3-4.2,3-6.6,0-2.4-1.1-4.8-3-6.6-2.6-2.5-6.4-3.9-10.4-3.8,0,0-.3,0-5,0h-26.6s0,1,0,1c0,1.7,1.7,3,3.7,3,19.4,0,25.5,0,27.4,0,.4,0,.7,0,.8,0h0c4.6,0,8.2,2.8,8.3,6.4,0,3.6-3.7,6.4-8.3,6.4h0c-.2,0-.4,0-.9,0-1.2,0-3.9,0-10.3,0h-.8s.6.6.6.6c15.7,15.4,19.3,18.9,20.1,19.7h0s.5.5.5.5h0c0,0,.2,0,.3.1.5.2,1.1.3,1.8.3h4.7l-.6-.6c-1.8-1.8-2.9-2.9-4.3-4.3Z"/>
    <path class="st0" d="M694,371.5c-13,0-23.7,8.5-23.7,19s10.6,19,23.7,19,23.7-8.5,23.7-19-10.6-19-23.7-19ZM712.8,390.5c0,8.3-8.4,15-18.8,15s-18.8-6.7-18.8-15,8.4-15,18.8-15,18.8,6.7,18.8,15Z"/>
    <path class="st0" d="M787,388.5h-2.7s0,1.9,0,1.9c0,1.1,1.1,2.1,2.5,2.1,5.4,0,8.3,3.4,8.3,6.5s-3.5,6.3-7.7,6.4h-28.9c-1.4,0-2.6.9-2.6,2.1v1.9h1.3c9.6,0,20.6,0,26.4,0s4,0,4.2,0c6.9-.5,12.1-5,12.1-10.5s-5.8-10.5-13-10.5Z"/>
    <path class="st0" d="M768.4,392.5h2.6v-1.9c0-1.2-1.2-2.1-2.6-2.1-4.5,0-8.2-2.9-8.2-6.5s3.7-6.5,8.1-6.5h.2q1,0,14.5,0h12.4c1.4,0,2.6-.9,2.6-2.1v-1.9h-29.3c-4.1,0-7.9,1.3-10.5,3.8-1.9,1.9-3,4.2-3,6.7,0,5.8,5.8,10.5,13,10.5Z"/>
    <path class="st0" d="M542.7,373.5v-1.9h-44.1v4h41.5c1.4,0,2.6-.9,2.6-2.1Z"/>
    <path class="st0" d="M540.9,405.5h-37.1v-13h32.1c1.4,0,2.6-.9,2.6-2.1v-1.9h-39.8v18.9c0,1.2,1.1,2.1,2.6,2.1h42.2s0-1.9,0-1.9c0-1.2-1.1-2.1-2.6-2.1Z"/>
  </g>
  <g>
    <path class="st0" d="M92.6,343.4c-10.5-1.5-21.6-2.2-32.7-2.2,0,0,0,0,0,0s0,0,0,0c-11.1,0-22.1.7-32.7,2.2-8.3,1.2-16.5,2.9-24.6,5.1,0,.2.6,0,.8,0,2.4-.4,5-1.1,7.4-1.6,16-3,32.5-4.5,49-4.4,0,0,0,0,0,0s0,0,0,0c16.5,0,33,1.4,49,4.4,2.4.5,5.1,1.2,7.4,1.6.2,0,.8.2.8,0-8.1-2.2-16.3-4-24.6-5.1Z"/>
    <path class="st0" d="M120.5,353.9c-8.3-2.5-16.7-4.6-25.3-6.1-11.4-2-23.3-2.9-35.4-2.8-12,0-24,.8-35.4,2.8-8.5,1.5-17,3.7-25.3,6.1-.5.3.5,10.6.6,12,.6,5.6,1.4,11.2,2.4,16.7l5.5,2.3c-1.3-8.6-2.7-17.4-2.6-26.1,10-3.6,20.6-5.6,31.1-6.8,7.7-.9,15.6-1.3,23.6-1.4,8,0,15.9.5,23.6,1.4,10.6,1.2,21.1,3.2,31.1,6.8,0,8.8-1.3,17.5-2.6,26.1l5.5-2.3c1-5.5,1.8-11.1,2.4-16.7.1-1.4,1.1-11.6.6-12Z"/>
    <path class="st0" d="M96.8,424.8c-2.1,3.1-4.4,6.1-6.9,9-6.4,7.2-13.7,13.3-22.3,17.7-1.1.6-5.8,2.8-7.7,3.4-1.9-.5-6.5-2.8-7.7-3.4-8.6-4.4-15.9-10.5-22.3-17.7-2.5-2.8-4.8-5.8-6.9-9h-5.4c1.9,3.1,4,6.2,6.2,9,9.4,11.8,21.7,21.2,36,26.5,14.4-5.3,26.7-14.6,36-26.5,2.3-2.9,4.3-5.9,6.2-9h-5.4Z"/>
    <path class="st0" d="M90.7,443.7c-8.9,8.4-19.4,15-30.8,19.6-11.4-4.5-21.9-11.2-30.8-19.6-3.3-3.1-6.1-6.5-9.2-9.7l2.6,3.7c9.9,12,22.9,21.5,37.4,27.2,14.5-5.7,27.5-15.2,37.4-27.2l2.6-3.7c-3.1,3.2-6,6.6-9.2,9.7Z"/>
    <path class="st0" d="M64,370.4c0-1.1-2.1-3-3.3-4-.3-.2-.1-.7.2-.7h16.2c.4,0,.5-.6,0-.7l-13-3.5c-.1,0-.3-.2-.3-.3l-3.8-27.7c0-.4-.7-.4-.7,0l-3.8,27.7c0,.1,0,.2,0,.3l3.4,3.6c.2.2,0,.6-.3.6h-16.2c-.4,0-.5.6,0,.7l12.8,3.5c.1,0,.2.2.3.3l3.8,26c0,.4.7.4.7,0l3.8-25.8s0,0,0-.1Z"/>
  </g>
</svg>