<?xml version="1.0" encoding="UTF-8"?>
<svg id="Capa_1" data-name="Capa 1" xmlns="http://www.w3.org/2000/svg" viewBox="0 0 800 800">
  <defs>
    <style>
      .cls-1 {
        fill: #bf8e50;
      }
    </style>
  </defs>
  <g>
    <path class="cls-1" d="M492.89,218.65c-29.94-4.29-61.4-6.32-92.84-6.27-.02,0-.03,0-.05,0s-.03,0-.05,0c-31.44-.05-62.9,1.97-92.84,6.27-23.58,3.38-46.93,8.36-69.87,14.61,0,.57,1.72.22,2.27.13,6.79-1.03,14.24-3.21,21.16-4.51,45.57-8.57,92.41-12.68,139.28-12.56.02,0,.03,0,.05,0s.03,0,.05,0c46.87-.12,93.71,3.99,139.28,12.56,6.92,1.3,14.37,3.48,21.16,4.51.55.08,2.27.44,2.27-.13-22.94-6.25-46.29-11.23-69.87-14.61Z"/>
    <path class="cls-1" d="M572.28,248.39c-23.59-7.04-47.47-13.18-71.77-17.42-32.28-5.62-66.35-8.13-100.51-7.99-34.16-.14-68.23,2.36-100.51,7.99-24.3,4.23-48.18,10.38-71.77,17.42-1.39.98,1.43,30.02,1.83,34.01,1.58,15.84,3.94,31.69,6.72,47.34l15.73,6.4c-3.67-24.56-7.55-49.31-7.4-74.23,28.38-10.16,58.47-15.93,88.47-19.27,21.77-2.42,44.32-3.74,66.93-3.86,22.61.13,45.16,1.44,66.93,3.86,30,3.34,60.08,9.11,88.47,19.27.16,24.92-3.73,49.68-7.4,74.23l15.73-6.4c2.78-15.65,5.14-31.5,6.72-47.34.4-3.99,3.22-33.03,1.83-34.01Z"/>
    <path class="cls-1" d="M504.9,449.96c-5.97,8.93-12.53,17.43-19.68,25.5-18.1,20.44-38.94,37.82-63.39,50.23-3.23,1.64-16.42,8.03-21.83,9.54-5.41-1.51-18.6-7.9-21.83-9.54-24.46-12.41-45.29-29.79-63.39-50.23-7.15-8.07-13.71-16.57-19.68-25.5h-15.27c5.42,8.91,11.33,17.51,17.75,25.64,26.59,33.65,61.58,60.24,102.42,75.23,40.84-14.99,75.83-41.58,102.42-75.23,6.42-8.13,12.33-16.73,17.75-25.64h-15.27Z"/>
    <path class="cls-1" d="M487.59,503.6c-25.41,23.87-55.16,42.74-87.59,55.63-32.43-12.88-62.18-31.76-87.59-55.63-9.25-8.69-17.47-18.39-26.19-27.54l7.5,10.41c28.24,34.01,65.05,61.02,106.28,77.23,41.23-16.21,78.04-43.22,106.28-77.23l7.5-10.41c-8.71,9.15-16.94,18.85-26.19,27.54Z"/>
    <path class="cls-1" d="M411.64,295.22c-.17-3.21-6.03-8.62-9.37-11.44-.75-.63-.29-1.85.69-1.85h45.96c1.23,0,1.46-1.75.27-2.07l-36.87-9.93c-.41-.11-.71-.45-.77-.87l-10.77-78.62c-.17-1.21-1.92-1.21-2.09,0l-10.74,78.6c-.04.31.06.63.27.86l9.59,10.26c.63.67.15,1.77-.77,1.77h-46.1c-1.23,0-1.46,1.74-.28,2.07l36.45,9.98c.4.11.7.45.76.86l10.82,73.85c.18,1.2,1.91,1.2,2.08,0l10.83-73.19c.01-.1.02-.19.02-.29Z"/>
  </g>
  <g>
    <g>
      <path class="cls-1" d="M172.39,587.07c-1.14,0-2.18.52-2.71,1.34-.11.17-14.72,21.2-14.86,21.4l-.45.65h3.38c.31,0,.6-.15.75-.38.1-.14,9.4-13.28,12.89-18.23l1.18-1.67,12.4,19.55c.28.45.83.73,1.44.73h3.01l-14.9-23.4h-2.13Z"/>
      <path class="cls-1" d="M239.04,587.83v11.31c0,3.34-2.34,6.36-6.11,7.88-.76.31-1.23.94-1.23,1.66v1.76s.52-.13.52-.13c6.17-1.54,10.27-6.1,10.19-11.34v-11.9h-2.53c-.47,0-.85.34-.85.76Z"/>
      <path class="cls-1" d="M222.86,607.01c-3.77-1.52-6.11-4.54-6.11-7.88v-11.3c0-.42-.38-.76-.85-.76h-2.53v.42c0,6.99,0,10.7,0,11.29h0s0,.03,0,.04v.04h0c0,.08,0,.17,0,.27,0,5.16,4.1,9.65,10.2,11.17l.52.13v-1.76c0-.72-.46-1.36-1.22-1.67Z"/>
      <path class="cls-1" d="M279.55,593.99h-1.76v14.99c0,.82.79,1.5,1.77,1.5h1.76v-14.99c0-.82-.79-1.5-1.76-1.5Z"/>
      <path class="cls-1" d="M290.86,587.07h-24.39v1.37c0,.82.79,1.5,1.76,1.5h24.39v-1.37c0-.36-.15-.7-.42-.97-.33-.33-.83-.53-1.35-.53Z"/>
      <path class="cls-1" d="M330.47,587.07c-8.01,0-14.52,5.25-14.52,11.7s6.52,11.7,14.52,11.7,14.52-5.25,14.52-11.7-6.52-11.7-14.52-11.7ZM341.62,598.77c0,4.87-5,8.83-11.14,8.83s-11.14-3.96-11.14-8.83,5-8.83,11.14-8.83,11.14,3.96,11.14,8.83Z"/>
      <path class="cls-1" d="M403.86,587.8l-14.37,20.08-14.37-20.09c-.32-.44-.97-.71-1.7-.71h-1.9l.04,23.28h1.25c1.19,0,2.16-.67,2.16-1.5v-15.8l12.02,16.45c.44.61,1.3.97,2.29.97h.44c.99,0,1.84-.36,2.29-.97l12.02-16.45v15.8c0,.82.97,1.5,2.16,1.5h1.25l.04-23.28h-1.9c-.73,0-1.38.28-1.71.72Z"/>
      <path class="cls-1" d="M448.49,587.07c-8.01,0-14.52,5.25-14.52,11.7s6.52,11.7,14.52,11.7,14.52-5.25,14.52-11.7-6.52-11.7-14.52-11.7ZM459.64,598.77c0,4.87-5,8.83-11.14,8.83s-11.14-3.96-11.14-8.83,5-8.83,11.14-8.83,11.14,3.96,11.14,8.83Z"/>
      <path class="cls-1" d="M510.7,587.07h-24.39v1.37c0,.82.79,1.5,1.76,1.5h24.39v-1.37c0-.36-.15-.7-.42-.97-.34-.34-.83-.53-1.35-.53Z"/>
      <path class="cls-1" d="M499.38,593.99h-1.76v14.99c0,.82.79,1.5,1.76,1.5h1.76v-14.99c0-.82-.79-1.5-1.77-1.5Z"/>
      <path class="cls-1" d="M560.32,607.17c-1.23-1.24-2.89-2.92-7.14-7.09.05,0,.06,0,.07,0,2.48.06,4.86-.79,6.46-2.34,1.21-1.16,1.88-2.64,1.9-4.17-.02-1.52-.69-3-1.9-4.16-1.61-1.55-3.99-2.4-6.47-2.34h-19.36v.82c0,1.13,1.1,2.04,2.45,2.04,11.89,0,15.53,0,16.64.01.19,0,.35,0,.47,0h0c2.65.01,4.74,1.61,4.78,3.63-.04,2.04-2.14,3.64-4.78,3.64h0c-.13,0-.29,0-.5,0-.7,0-2.35,0-6.23,0h-1.02s.73.71.73.71c8.71,8.55,11.26,11.06,12,11.79h0s.6.58.6.58l.05-.05s.03.01.05.02c.34.13.74.2,1.16.2h3.36l-.73-.71c-1.11-1.09-1.77-1.75-2.59-2.58Z"/>
      <path class="cls-1" d="M592.94,587.07h-1.76v21.9c0,.82.79,1.5,1.76,1.5h1.76v-21.9c0-.82-.79-1.5-1.77-1.5Z"/>
      <path class="cls-1" d="M647.31,587.07h-23.95v1.14c0,.82.79,1.49,1.76,1.49h23.94v-1.39c0-.75-.69-1.24-1.75-1.24Z"/>
      <path class="cls-1" d="M647.3,607.72h-19.73c4.14-3.39,11.58-9.49,15.4-12.48l.95-.74h-2.38c-1.15,0-2.28.38-3.09,1.05-.04.03-.72.57-13.71,10.87-.89.74-1.38,1.72-1.38,2.76v1.29h25.7v-1.38c0-.9-.88-1.37-1.76-1.37Z"/>
    </g>
    <g>
      <path class="cls-1" d="M40.45,376.04s-.95,0-15.92,0H0v1.28c0,2.12,2.11,3.85,4.71,3.85,25,0,32.75.02,35.12.02.5,0,.82,0,1.02-.01h0c5.93.02,10.57,3.65,10.57,8.27s-4.67,8.25-10.4,8.26h-.32q-1.04.03-23.48.03H0s0,26.81,0,26.81h3.26c1.8,0,3.27-1.21,3.27-2.7v-18.99h34.47c9.19,0,16.66-6.02,16.66-13.41,0-3.11-1.35-6.14-3.81-8.53-3.31-3.23-8.19-5.01-13.4-4.87Z"/>
      <path class="cls-1" d="M121.26,376.04h-3.26v45.82c0,1.49,1.46,2.7,3.27,2.7h3.26v-45.82c0-1.49-1.47-2.7-3.27-2.7Z"/>
      <path class="cls-1" d="M217.08,376.03c-16.67,0-30.23,10.88-30.23,24.26s13.56,24.26,30.23,24.26,30.23-10.89,30.23-24.26-13.56-24.26-30.23-24.26ZM241.09,400.29c0,10.55-10.77,19.13-24.01,19.13s-24.01-8.58-24.01-19.13,10.77-19.13,24.01-19.13,24.01,8.58,24.01,19.13Z"/>
      <path class="cls-1" d="M348.95,378.73v39.99l-39.06-42.11c-.34-.36-.87-.58-1.42-.58h-7.36v26.81h3.26c1.8,0,3.27-1.21,3.27-2.7v-18.25l39.02,42.07c.34.36.87.58,1.42.58h7.39v-48.51h-3.26c-1.8,0-3.27,1.21-3.27,2.7Z"/>
      <path class="cls-1" d="M577.1,418.37c-2.68-2.7-6.32-6.38-15.88-15.76,1.14,0,1.26,0,1.29,0,5.14.12,10.02-1.63,13.33-4.82,2.46-2.37,3.83-5.38,3.87-8.48-.03-3.09-1.41-6.1-3.87-8.47-3.31-3.19-8.17-4.95-13.34-4.82-.04,0-.43,0-6.4,0h-34.05s0,1.28,0,1.28c0,2.12,2.11,3.85,4.71,3.85,24.82,0,32.63.02,35.07.02.52,0,.86,0,1.08-.01h0c5.85.02,10.49,3.6,10.57,8.14-.08,4.56-4.72,8.14-10.57,8.15h0c-.22,0-.57,0-1.1,0-1.5,0-5,.01-13.11.02h-1.02s.73.71.73.71c20.05,19.69,24.65,24.21,25.67,25.23h0s.6.58.6.58l.03-.03c.12.08.24.14.37.19.66.26,1.45.4,2.29.4h5.97l-.73-.71c-2.36-2.31-3.75-3.71-5.49-5.47Z"/>
      <path class="cls-1" d="M664.57,376.03c-16.67,0-30.23,10.88-30.23,24.26s13.56,24.26,30.23,24.26,30.23-10.89,30.23-24.26-13.56-24.26-30.23-24.26ZM688.58,400.29c0,10.55-10.77,19.13-24.01,19.13s-24.01-8.58-24.01-19.13,10.77-19.13,24.01-19.13,24.01,8.58,24.01,19.13Z"/>
      <path class="cls-1" d="M783.38,397.74l-3.42-.03v2.49c0,1.46,1.44,2.67,3.2,2.7,6.88.11,10.59,4.34,10.59,8.26,0,4.39-4.42,8.09-9.84,8.24h-36.9c-1.8,0-3.27,1.21-3.27,2.7v2.43h1.65c12.29,0,26.29.02,33.75.02,3.18,0,5.17,0,5.33,0,8.85-.6,15.52-6.36,15.52-13.39,0-7.38-7.46-13.4-16.62-13.41Z"/>
      <path class="cls-1" d="M759.56,402.84h3.37v-2.43c0-1.5-1.51-2.72-3.37-2.72-5.75,0-10.43-3.71-10.43-8.26s4.67-8.25,10.41-8.26h.27q1.23-.02,18.55-.02h15.91c1.8,0,3.27-1.21,3.27-2.7v-2.43h-37.45c-5.19-.13-10.08,1.65-13.39,4.88-2.45,2.39-3.8,5.42-3.8,8.53,0,7.4,7.48,13.42,16.66,13.42Z"/>
      <path class="cls-1" d="M471.24,378.47v-2.43h-56.3v5.13h53.03c1.8,0,3.27-1.21,3.27-2.7Z"/>
      <path class="cls-1" d="M468.86,419.42h-47.39v-16.56h41.08c1.8,0,3.27-1.21,3.27-2.7v-2.43h-50.87v24.12c0,1.49,1.46,2.7,3.27,2.7h53.92s0-2.43,0-2.43c0-1.49-1.46-2.7-3.27-2.7Z"/>
    </g>
  </g>
</svg>