<?xml version="1.0" encoding="UTF-8"?>
<svg id="Layer_1" xmlns="http://www.w3.org/2000/svg" version="1.1" viewBox="0 0 800 800">
  <!-- Generator: Adobe Illustrator 29.5.0, SVG Export Plug-In . SVG Version: 2.1.0 Build 137)  -->
  <defs>
    <style>
      .st0 {
        fill: #a36627;
      }
    </style>
  </defs>
  <path class="st0" d="M178.6,162.2c-2.1,3.7-3.5,6.5-4,8-1.4,4.4-2,6.6-2.5,7.8-2.6-.6-5.4-1.7-7.6-1-2.2.9-2.6,3.1-5.3,3.8-3.1.6-7.8-1.1-10.8-1.5-6.6-1.1-13.5-2-20.1-3.5-10.6-2.4-14.4-12.3-13.7-22.3.7-9.3,10.2-12.4,17.7-13.5,7.5-1.3,17.7-4.7,24.8-.4,10.3,6.3,6.2,25.5,21.7,22.7Z"/>
  <path class="st0" d="M680.2,236.1c-.6-9.3-22.2-29.3-28.4-35.4-4.1-4-18.5-16.3-23.3-19.4-2.9-1.8-3.5-1.8-4.2-3.6-.4-1.3-1-3.6-2.4-7.9-.6-1.6-1.9-4.3-4-8-12.4-22.5-48.7-78.6-51.7-81.7-3.7-3.6-11.5-10.7-22.9-12.7-11.2-1.9-123.9-7.8-145.1-7.8s-134,6.1-145.2,8.1c-11.3,2-19.2,9-22.8,12.5-3,3.1-39.3,59.3-51.6,81.8-2.1,3.8-3.5,6.5-4,8-1.4,4.4-2,6.7-2.4,7.9-.6,1.2-3.5,3.2-4.6,3.8-.2.2-.3.3-.3.3-3.1,2.1-15.8,10.7-22.5,17.9-10.3,10.9-28,27.2-28.4,36.5-.4,9.3-4.4,15.9-3.4,34.5.3,9,2.9,36.3,5.3,62.3,2.4,27.3,5.1,53.2,5.3,55.2.4,4-.9,8.4.9,11.9,1.8,3.6,6.2,4.6,13.2,4.4,2.2,0,25.6.3,57.9.8,76.8.9,202.8,2.6,202.8,2.6,0,0,130-1.9,206.4-3,30.3-.4,52.3-.8,54.3-.8,7,0,11.4-.9,13.3-4.4,1.7-3.4.3-7.9.8-11.9.3-2.8,4.9-49.5,7.9-83.9,1.3-15.2,2.3-28,2.7-33.6.9-18.5-3.1-25.2-3.5-34.4ZM636.8,229.2c10,0,12-1.3,14,7.9,1.3,6,1.3,14,0,19.3-4,19.2-28.4,19.2-44.4,19.2-29.2.1-54.5,7.3-77.5-33.7,19.8-5.9,43.1-5.3,62.9-8.5,15.1-2.8,29.7-4.1,44.9-4.1ZM236,83.1l162.3-5.7,161.9,5.3s58.5,91,54.1,91-150.4-8.2-216.1-6.8c-65.6-1.3-211.9,7.1-216,7.1-4.4,0,53.8-91,53.8-91ZM145.7,237.5c2-9.2,4-7.9,13.9-8,15.2,0,29.9,1.4,45.1,4.1,20,3.2,43.2,2.6,62.9,8.4-23,41.2-48.3,34-77.5,34s-40.4,0-44.4-19.2c-1.3-5.3-1.3-13.3,0-19.3ZM250,385.9c-9.8,3.6-32.2,2.8-42.8,2.8s-7.8,0-11.5-.1c-9.3-.1-18.6-.3-28.1-.4-4.2-.1-8.3-.1-12.7-.1-15.9,0-18.5-5.3-15-21.2,3.5-11.5,1.3-22.4,13.2-26.9,4.3-1.6,18.7-2.2,36.6-2.1,1.9,0,3.9,0,5.9.1,5.9.1,12.1.2,18.4.6,3.8.1,7.5.3,11.3.6,1.5,0,2.8.1,4.1.2,2.1.1,4.1.3,6.1.4,2,.1,4,.3,6,.4,2,.2,3.9.4,5.8.6,2.9.2,5.7.6,8.3.9,1.8.2,3.6.4,5.1.7,1.4.2,2.8.4,4.1.6.7.1,1.3.2,1.9.3.9.1,1.7.3,2.4.4.3.1.7.1.9.1.6.1,1.1.2,1.7.3.9.2,1.7.3,2.5.6-4.4,15-8.3,36-24.2,41.3ZM504.8,365.6c-5.7,15.9-27.7,13.8-30,13.8h-152.9c-2.1.1-24.3,2.3-30-13.5-5.9-16-14.7-41.6-17.8-54.4-3.3-13.4-14.2-36.5,50.8-35.1,33.5.7,57.7.7,73.3.4,15.6.2,39.8.2,73.4-.6,64.9-1.6,54.2,21.5,50.8,35-3.1,12.8-11.9,38.5-17.7,54.4ZM641.9,387.6c-12.7,0-24.7.4-37.1.7-5.1.1-10.1.1-15.2.1-10.7,0-33.1.9-42.7-2.7-15.9-5.3-20-26.3-24.3-41.3,1.1-.3,2.2-.6,3.4-.8,1.6-.2,3.3-.6,5.1-.9,1.1-.1,2.3-.3,3.5-.6.4,0,.8,0,1.2-.1,1.6-.2,3.3-.4,5-.7h.5c1.7-.2,3.4-.4,5.2-.7,4.3-.4,8.9-.9,13.6-1.2,1.3,0,2.7-.1,4-.2,7.2-.6,14.7-1,22-1.2,1.9-.1,3.8-.2,5.7-.3h4.1c1.7-.1,3.2-.1,4.9-.2h3.9c19-.3,34.4.4,38.8,2,11.9,4.4,9.8,15.3,13.3,26.9,3.6,15.9.9,21.2-15,21.2Z"/>
  <path class="st0" d="M195.6,416.6v30.5c0,2.9-2.3,5.3-5.2,5.3h-66.7c-3,.1-5.3-2.3-5.3-5.2v-37c5.8,5.3,14.2,5.5,18.9,5.5s58.3.8,58.3.8h.1Z"/>
  <path class="st0" d="M682.2,405.1v41.6c0,3-2.3,5.3-5.3,5.3h-66.7c-2.9.1-5.3-2.3-5.3-5.2v-30.6c31.5-.4,53.8-.8,54.3-.8,5.2,0,17.3,0,23.1-10.3Z"/>
  <path class="st0" d="M189.6,363.3c0,11.2-9,20.2-20.2,20.2-11.1,0-20.2-9-20.2-20.2,0-11.2,9-20.2,20.2-20.2,11.1,0,20.2,9,20.2,20.2Z"/>
  <path class="st0" d="M668.2,175.3c-6.6,1.5-13.5,2.5-20.1,3.6-3.1.4-7.7,2.2-10.8,1.6-2.7-.7-3.1-2.9-5.3-3.8-2.3-.7-5.1.4-7.6,1-.5-1.2-1.1-3.5-2.5-7.9-.5-1.5-1.9-4.3-4-8,15.4,2.8,11.3-16.4,21.6-22.7,7-4.3,17.2-.9,24.8.4,7.5,1.1,17,4.2,17.6,13.5.7,9.9-3,19.8-13.6,22.3Z"/>
  <path class="st0" d="M224.4,363.3c0,7.9-6.4,14.4-14.4,14.4s-14.4-6.4-14.4-14.4c0-8,6.4-14.4,14.4-14.4,8,0,14.4,6.4,14.4,14.4Z"/>
  <path class="st0" d="M646.2,362.9c0,11.1-9,20.2-20.2,20.2-11.1,0-20.2-9-20.2-20.2,0-11.1,9-20.2,20.2-20.2,11.2,0,20.2,9,20.2,20.2Z"/>
  <path class="st0" d="M597.8,362.9c0,8-6.4,14.4-14.4,14.4-7.9,0-14.4-6.4-14.4-14.4,0-8,6.4-14.4,14.4-14.4,8,0,14.4,6.4,14.4,14.4Z"/>
  <rect class="st0" x=".9" y="687.2" width="146.2" height="52.7"/>
  <polygon class="st0" points="50.4 676.1 50.4 229.4 97.6 229.4 97.6 463.3 213.4 463.3 213.4 481.7 97.6 481.7 97.6 676.1 50.4 676.1"/>
  <rect class="st0" x="652.9" y="687.6" width="146.2" height="52.7"/>
  <polygon class="st0" points="702.4 676.5 702.4 482 586.6 482 586.6 463.6 702.4 463.6 702.4 229.7 749.6 229.7 749.6 676.5 702.4 676.5"/>
</svg>