<?xml version="1.0" encoding="UTF-8"?>
<svg id="Layer_1" xmlns="http://www.w3.org/2000/svg" version="1.1" viewBox="0 0 800 800">
  <!-- Generator: Adobe Illustrator 29.5.0, SVG Export Plug-In . SVG Version: 2.1.0 Build 137)  -->
  <defs>
    <style>
      .st0 {
        fill: #a36627;
      }
    </style>
  </defs>
  <path class="st0" d="M526.2,481.1c-16.9,33.8-67,58.4-126.2,58.4s-112.7-26.3-127.6-61.9l27.4-9.2v-49c29.7,26.4,66,40.9,103,40.9s68.8-12.5,97.6-36.4v46.7l25.9,10.5Z"/>
  <path class="st0" d="M587.2,208.3l-20.1-5.6-1-.3c-1.9-.7-6.2-1.9-15.1-3.3l-12.6,19-.4.9-.6.6-1.9,3c-1,1.6-1.9,3-2.8,4.4-7.3,10.7-13.1,16.7-29.8,16.7h-5.1l-2.5-1.4c-4.9-2.6-37.2-7.5-92.5-7.5s-86.6,4.5-92.3,7.5l-2.5,1.4h-5.1c-17.2,0-22.9-6.2-30.3-17.5-.8-1.2-1.6-2.5-2.5-3.8l-1.8-2.8-.6-.4-.6-1.1-12.5-18.9c-9,1.4-13.3,2.6-15.2,3.2l-1,.4-19.5,3.8c-5.2,11.8-7,28.4-4.3,46.3,3.5,23.4,14,42.2,26,49.3,1.2.8,2.5,1.5,3.8,1.9,10.1,39.9,29.6,74.5,55.1,100,28.3,28.3,64,45,103,45s70.2-14.7,97.6-40c28.4-25.9,50-62.6,60.8-105.2,13.6-5.1,25.8-25.3,29.7-51,2.5-17,.9-32.9-3.6-44.5ZM579.6,251.2c-3.6,23.2-14.2,38.9-22.5,42l-5.5,2.1-1.5,5.6c-10,39.6-30.4,75.1-57.4,99.7-26.3,24.2-57.4,37-90.1,37s-67.8-14.4-95-41.8c-24.6-24.5-42.7-57.3-52.2-94.8l-1.6-6-5.9-1.9c-.1,0-.5-.2-1.2-.7-8-4.7-17.7-19.6-20.9-41.5-1.9-12.7-1.3-25.1,1.5-34.8l14.5-2.8,1.1-.6c.8-.2,2.7-.8,6.4-1.5l8,12.2,1.3,2.7,1.1.9,3.2,5c8.3,12.5,16.9,22.8,39.9,22.8h8l5-2.7c3.7-1.6,32.2-6.2,86.9-6.2s83.3,4.7,87.7,6.4l4.4,2.5h8c22.5,0,31.1-9.8,39.2-21.6l4.3-6.7.3-.5,1.3-2.1,8.3-12.6c3.5.7,5.3,1.2,6.1,1.5l1.3.4,14.9,4.2c2.5,9.6,3,21.5,1.2,33.7Z"/>
  <polygon class="st0" points="148 712.9 150.2 712.9 244.5 712.9 244.5 630 557.6 630 557.6 712.9 652.6 712.9 652.6 800 147.4 800 147.4 712.9 148 712.9"/>
  <path class="st0" d="M159.2,494.7v206.9h74.1v-229.9l-74.1,23ZM196.3,689.9c-13.3,0-24.1-10.8-24.1-24.2s10.8-24.1,24.1-24.1,24.2,10.8,24.2,24.1c0,13.4-10.8,24.2-24.2,24.2Z"/>
  <path class="st0" d="M568.8,471.8v229.9h74.1v-206.9l-74.1-23ZM605.9,689.9c-13.4,0-24.1-10.8-24.1-24.2s10.7-24.1,24.1-24.1,24.1,10.8,24.1,24.1-10.8,24.2-24.1,24.2Z"/>
  <path class="st0" d="M575.1,126.7v68.9c0-3.2-9.9-6-27.2-8.3-.8-.1-1.7-.2-2.5-.3l-16.7,25.2c-.1.1-.1.2-.2.3-10.6,16.1-11.7,19.9-25.8,19.9h-2.2c-9.5-5.1-49.8-8.9-97.8-8.9s-87.9,3.7-97.6,8.9h-2.3c-14.2,0-15.3-3.8-25.8-19.9-.1-.1-.1-.2-.2-.3l-16.8-25.2c-.8.1-1.7.2-2.5.3-17.2,2.3-27.2,5.2-27.2,8.3v-68.9C230.4,51.2,307.5,0,402.7,0c95.2,0,172.5,51.2,172.5,126.7Z"/>
</svg>