<?xml version="1.0" encoding="UTF-8"?>
<svg id="Layer_1" xmlns="http://www.w3.org/2000/svg" version="1.1" viewBox="0 0 800 800">
  <!-- Generator: Adobe Illustrator 29.5.0, SVG Export Plug-In . SVG Version: 2.1.0 Build 137)  -->
  <defs>
    <style>
      .st0 {
        fill: #a36627;
      }
    </style>
  </defs>
  <path class="st0" d="M665.8,374.5l-1.7-2.1-.4-.4L439.9,100.8l-6.2-7.5c-4.4-3.9-10.2-6.1-16.5-6.1h-77.5v-18.9h-120.5v18.9h-64.6c-14.2,0-25.8,11.5-25.8,25.8v661c0,14.4,11.6,25.8,25.8,25.8h491c14.2,0,25.8-11.5,25.8-25.8v-383.9c0-6.1-2.1-11.5-5.6-15.8ZM582.6,716.5H208.9v-272.9h373.7v272.9ZM458.1,369.5l-15.1-185.9,144.3,180.9,8,10.1-137.2-5Z"/>
  <path class="st0" d="M439.9,100.8l-6.2-7.5c2.6,2.1,4.7,4.7,6.2,7.5Z"/>
  <rect class="st0" x="208.9" width="141.1" height="55.5"/>
  <path class="st0" d="M453.6,579l-1-1.5-52.5-93.7-55.6,98.7c-5.2,9-7.9,19.5-7.9,30.6,0,35,28.4,63.2,63.4,63.2s63.3-28.2,63.3-63.2-3.6-24.3-9.8-34.1ZM387.3,657.4c-4.4,5.9-13.1.6-18.2-2.2-6.2-3.4-18.2-13.2-17.2-21.7,1.8-12,13.8-3.9,20.7,1.8,9,8.3,16.7,19.7,14.7,22.1Z"/>
</svg>