<?xml version="1.0" encoding="UTF-8"?>
<svg id="Layer_1" xmlns="http://www.w3.org/2000/svg" version="1.1" viewBox="0 0 800 800">
  <!-- Generator: Adobe Illustrator 29.5.0, SVG Export Plug-In . SVG Version: 2.1.0 Build 137)  -->
  <defs>
    <style>
      .st0 {
        fill: #a36627;
      }
    </style>
  </defs>
  <path class="st0" d="M401.5,0C181.1-1,.8,177.8,0,398.1c-1,220.6,177.8,401,398.4,401.8,220.2.8,400.5-177.8,401.6-398.4C800.7,181.1,622.1.8,401.5,0ZM633,638.7l-25.6,22.9c-6.9,5.3-15.1,11.3-23.9,17-10.2,7.1-20.7,13.1-31,18-46.3,24.3-99.3,37.3-152.9,37.3h-.8c-54.7-.1-106.7-13.3-154.7-39l-30.3-18.1c-8.8-5.8-15.6-10.8-21.6-15.8l-.3-.2-2.8-1.9-23.1-21.2-1.5-1.5c-64-63.9-99.1-148.2-98.7-237.6.1-19.5,1.9-37.9,5.4-56.3,1.9-12.6,4.4-23.9,7.6-34.6,2.1-7.2,4.8-14.8,7.3-22l1.5-4.1c4.8-13.3,9.7-23.8,15.2-33.5,48.4-96.2,141.6-163.2,249-178.8,11.2-1.8,22.8-2.8,34.1-2.9,3.7-.4,7.6-.6,11.6-.6,0,0,3.5-.1,3.6-.1,5.4,0,10.1.1,15.2.8,8.7.1,19.5,1.1,33.7,3,107,16.3,199.8,84,248.4,181.2,6.2,12.6,10.8,22.9,14.1,32.7,3.7,8.2,6.4,17.8,8.7,26.8,3.7,12.2,6.4,24.2,7.7,35,2.9,16.6,4.6,35.5,4.7,55.4-.4,90.4-36.2,174.8-100.9,237.6Z"/>
  <path class="st0" d="M715.5,347.3c-1.4-11-4.1-22.4-7.5-33.2-2.2-8.7-4.6-17.4-8.3-25.7-3.7-10.6-8.4-21-13.4-31.1-45.6-91.1-133.5-157.9-237.9-173.8-11.2-1.5-22.5-2.8-33.6-3-4.6-.6-8.8-.7-13.4-.7-5,.1-9.7,0-14.2.7-11.2.1-22.5,1.1-33.3,2.8-104.5,15.1-193.1,81-238.9,172-5.8,10.1-10.2,20.3-14.2,31.1-2.9,8.3-6.1,17-8.6,25.6-3.2,10.7-5.5,21.7-7.3,33-3.3,17.7-5,35.4-5.1,53.8-.4,89,36.2,169.6,94.7,227.8l1.1,1.1,23.1,21.1,1,.4c6.8,5.8,14.2,11.1,21.4,15.8l29.6,17.8c44.1,23.6,94.3,37.2,148.2,37.3,53.2.1,103.5-12.7,147.8-35.9,10.2-4.9,20.2-10.8,29.4-17.1,7.7-5,15.1-10.4,22.1-15.8l25.2-22.5c59.2-57.5,96.4-138.2,96.8-227.6-.1-18.2-1.5-36.3-4.6-53.9ZM675.2,298.6c3.2,7.6,5.7,16,7.6,23.2q0,.3.1.6l-179.6,57.5c-1.7-9-4.6-17.6-8.4-25.6l179.6-57.8c.3.8.3,1.2.7,2.1ZM660.8,265.3l-199.1,49.2-13.5-203.8c91,14.8,169.6,72.6,212.6,154.5ZM486.1,376c0,8.4-6.9,15.2-15.3,15.2s-15.3-6.8-15.3-15.2,6.9-15.3,15.3-15.3,15.3,6.8,15.3,15.3ZM459.2,459c0,8.4-6.8,15.2-15.3,15.2s-15.3-6.8-15.3-15.2,6.9-15.3,15.3-15.3,15.3,6.8,15.3,15.3ZM387.1,107c1.1-.3,2.2-.4,3.2-.4,2.9-.2,5.7-.2,8.7-.2h4.1c2.8,0,5.9,0,10.9.6h.6l-.7,188.6c-4.6-.7-9.3-1-14-1s-9.3.3-13.8,1l1-188.6ZM399.9,308.8c8.6,0,15.3,6.8,15.3,15.3s-6.8,15.2-15.3,15.2-15.3-6.8-15.3-15.2,6.9-15.3,15.3-15.3ZM399.9,357.5c23.5,0,42.6,19.1,42.6,42.6s-19.1,42.4-42.6,42.4-42.4-19.1-42.4-42.4,19.1-42.6,42.4-42.6ZM356.3,443.6c8.4,0,15.3,6.8,15.3,15.3s-6.9,15.2-15.3,15.2-15.3-6.8-15.3-15.2c0-8.6,6.9-15.3,15.3-15.3ZM329.7,391.2c-8.4,0-15.3-6.8-15.3-15.2s6.9-15.3,15.3-15.3,15.3,6.8,15.3,15.3-6.9,15.2-15.3,15.2ZM353.8,110.2l-14.8,203.8h0c0,.1-.1.1-.1.1l-198.4-50.6c43.3-81.8,122.3-138.9,213.3-153.3ZM117.9,319.1c2.1-7.9,4.8-15.8,7.7-23.5.1-.2.3-.8.6-1.1l179.3,59.2c-4.1,8-7.1,16.7-9,25.7l-179-59.2c.1-.3.3-.7.4-1.1ZM190.1,604.7c-54.2-55.4-84-128.3-83.8-206,.1-15.1,1.7-30,4-45.3l1.9.7,186.9,76.7-109.1,173.9ZM236.8,643.7l-.8-.8c-7.1-4.3-13.8-9.4-19.4-14.1l-1.2-1,111.1-152.2c6.5,6.5,14,12,22,16.3l-111.7,151.8ZM399,693.6c-47-.3-91.9-11.3-132.4-32.5l132-155.7,132.4,156.9c-40.6,20.9-85.4,31.2-132,31.2ZM582.1,630.1c-6.8,5-13.1,10.1-20.9,15.1-.1,0-.3.3-.4.6l-110.6-153c8.2-4.4,15.6-10,22.3-16.3l110,153.2q-.1.3-.4.6ZM607.7,606.7l-107-175.7,189.1-75.8c2.6,15.1,3.6,30.6,3.5,45.8-.1,78-30.6,151-85.6,205.7Z"/>
</svg>