<?xml version="1.0" encoding="UTF-8"?>
<svg id="Layer_1" xmlns="http://www.w3.org/2000/svg" version="1.1" viewBox="0 0 800 800">
  <!-- Generator: Adobe Illustrator 29.5.0, SVG Export Plug-In . SVG Version: 2.1.0 Build 137)  -->
  <defs>
    <style>
      .st0 {
        fill: #a36627;
      }
    </style>
  </defs>
  <path class="st0" d="M761,565.8c-36.7-53.4-101.8-75.6-161.1-59.9l-110.6-110.6-23.4,23.3,74.3,74.3c10.6,10.6,10.6,27.7,0,38.3-5.3,5.3-12.2,8-19.2,8s-13.8-2.6-19.1-8l-74.3-74.4-23.3,23.5,101,101c-24.8,47.5-23.2,106.6,9.2,153.8,31.3,45.6,83.3,68.3,134.7,64.5l-67.6-98.5c-9.3-13.5-5.8-31.8,7.7-41.2l74.7-51.3c13.5-9.3,32-5.8,41.4,7.6l67.5,98.5c22.1-46.6,19.5-103.3-11.8-148.8ZM292.2,256c6.9,0,13.9,2.6,19.1,8l82.9,82.9,23.3-23.3-107.6-107.5c23.6-47.5,21-106-11.5-152.4C266.6,18.3,214.5-3.9,163.2.6l68.6,97.7c9.4,13.5,6.1,32-7.3,41.4l-74.1,52.1c-13.5,9.4-32,6.2-41.4-7.3L40.2,86.6c-21.6,46.9-18.4,103.6,13.3,148.8,37.7,53.6,104,74.9,163.8,57.8l115.2,115.2,23.5-23.3-82.9-82.9c-10.6-10.6-10.6-27.7,0-38.3,5.2-5.3,12.2-7.9,19.1-7.9Z"/>
  <path class="st0" d="M378.1,536.5c-5,5-13.2,5-18.2,0l-83.6-83.6c-5-5-5-13.2,0-18.2l4.5-4.5c5-5,13.2-5,18.2,0l83.6,83.6c5,5,5,13.2,0,18.2l-4.5,4.5Z"/>
  <path class="st0" d="M341,555l-182.7,199.3-22.5,24.5c-7,7-15,12.3-23.8,15.8-6.6,2.8-13.4,4.4-20.3,4.9-2.3.3-4.5.4-6.9.4-18.4.1-36.9-6.9-50.9-21-28.2-28.2-28.2-73.9,0-102l24.4-22.4,199.3-182.9,83.4,83.3Z"/>
  <path class="st0" d="M715.4,129.2l-34.7,54.6-30.8,13.1-276,276.1-34.2-34.2,276.1-276.1,13.1-30.6,54.6-34.8,2.9,2.9-40.3,33.7c-7,7-3.9,22.1,3.2,29.3,7.3,7.2,22.8,11.4,30,4.2l33-41.4,3,3Z"/>
</svg>